%TF.GenerationSoftware,KiCad,Pcbnew,10.0.6*%
%TF.CreationDate,2026-10-07T14:16:34+11:00*%
%TF.ProjectId,Starbie,53746172-6269-4652-9e6b-696361645f70,rev?*%
%TF.SameCoordinates,Original*%
%TF.FileFunction,Soldermask,Bot*%
%TF.FilePolarity,Negative*%
%FSLAX46Y46*%
G04 Gerber Fmt 4.6, Leading zero omitted, Abs format (unit mm)*
G04 Created by KiCad (PCBNEW 10.0.6) date 2026-10-07 14:16:34*
%MOMM*%
%LPD*%
G01*
G04 APERTURE LIST*
%ADD10R,1.500000X1.500000*%
%ADD11C,1.500000*%
%ADD12C,1.700000*%
%ADD13C,4.000000*%
%ADD14C,2.200000*%
%ADD15O,3.800000X2.900000*%
%ADD16R,1.700000X1.700000*%
%ADD17O,1.700000X1.700000*%
%ADD18C,1.400000*%
%ADD19C,1.524000*%
G04 APERTURE END LIST*
D10*
%TO.C,U1*%
X120590000Y-50750000D03*
D11*
X118050000Y-50750000D03*
X115510000Y-50750000D03*
X112970000Y-50750000D03*
%TD*%
D12*
%TO.C,SW1*%
X86780000Y-67680000D03*
D13*
X91860000Y-67680000D03*
D12*
X96940000Y-67680000D03*
D14*
X94400000Y-62600000D03*
X88050000Y-65140000D03*
%TD*%
D15*
%TO.C,J1*%
X126552000Y-79764000D03*
X126552000Y-56650000D03*
X104200000Y-79764000D03*
X104200000Y-56650000D03*
D16*
X119186000Y-80399000D03*
D17*
X116646000Y-80399000D03*
X114106000Y-80399000D03*
X111566000Y-80399000D03*
%TD*%
D18*
%TO.C,R1*%
X122540000Y-46400000D03*
X114920000Y-46400000D03*
%TD*%
D12*
%TO.C,SW2*%
X95380000Y-91880000D03*
D13*
X100460000Y-91880000D03*
D12*
X105540000Y-91880000D03*
D14*
X103000000Y-86800000D03*
X96650000Y-89340000D03*
%TD*%
D16*
%TO.C,J2*%
X130600000Y-81710000D03*
D12*
X130600000Y-84250000D03*
X130600000Y-86790000D03*
X130600000Y-89330000D03*
X130600000Y-91870000D03*
X130600000Y-94410000D03*
X130600000Y-96950000D03*
X130600000Y-99490000D03*
%TD*%
D19*
%TO.C,U2*%
X133110000Y-61070000D03*
X133110000Y-63610000D03*
X133110000Y-66150000D03*
X133110000Y-68690000D03*
X133110000Y-71230000D03*
X133110000Y-73770000D03*
X133110000Y-76310000D03*
X148350000Y-76310000D03*
X148350000Y-73770000D03*
X148350000Y-71230000D03*
X148350000Y-68690000D03*
X148350000Y-66150000D03*
X148350000Y-63610000D03*
X148350000Y-61070000D03*
%TD*%
M02*
