%TF.GenerationSoftware,KiCad,Pcbnew,10.0.6*%
%TF.CreationDate,2026-10-07T14:16:34+11:00*%
%TF.ProjectId,Starbie,53746172-6269-4652-9e6b-696361645f70,rev?*%
%TF.SameCoordinates,Original*%
%TF.FileFunction,Profile,NP*%
%FSLAX46Y46*%
G04 Gerber Fmt 4.6, Leading zero omitted, Abs format (unit mm)*
G04 Created by KiCad (PCBNEW 10.0.6) date 2026-10-07 14:16:34*
%MOMM*%
%LPD*%
G01*
G04 APERTURE LIST*
%TA.AperFunction,Profile*%
%ADD10C,0.100000*%
%TD*%
G04 APERTURE END LIST*
D10*
%TO.C,G\u002A\u002A\u002A*%
X84157209Y-113310509D02*
X84157209Y-99510509D01*
X87757209Y-99510509D01*
X87757209Y-89310509D01*
X90757209Y-89310509D01*
X90757209Y-79110509D01*
X87757209Y-79110509D01*
X87757209Y-75510509D01*
X84157209Y-75510509D01*
X84157209Y-71910509D01*
X80557209Y-71910509D01*
X80557209Y-68310509D01*
X76957209Y-68310509D01*
X76957209Y-64710509D01*
X73957209Y-64710509D01*
X73957209Y-61710509D01*
X70357209Y-61710509D01*
X70357209Y-58110509D01*
X101557209Y-58110509D01*
X101557209Y-54510509D01*
X104557209Y-54510509D01*
X104557209Y-47910509D01*
X108157209Y-47910509D01*
X108157209Y-41310509D01*
X111757209Y-41310509D01*
X111757209Y-37710509D01*
X115357209Y-37710509D01*
X115357209Y-30510509D01*
X121957209Y-30510509D01*
X121957209Y-37710509D01*
X125557209Y-37710509D01*
X125557209Y-44310509D01*
X128557209Y-44310509D01*
X128557209Y-51510509D01*
X132157209Y-51510509D01*
X132157209Y-54510509D01*
X135757209Y-54510509D01*
X135757209Y-58110509D01*
X166957209Y-58110509D01*
X166957209Y-61710509D01*
X163357209Y-61710509D01*
X163357209Y-65310509D01*
X159757209Y-65310509D01*
X159757209Y-68310509D01*
X156157209Y-68310509D01*
X156157209Y-71910509D01*
X152557209Y-71910509D01*
X152557209Y-78510509D01*
X149557209Y-78510509D01*
X149557209Y-82110509D01*
X145957209Y-82110509D01*
X145957209Y-85710509D01*
X149557209Y-85710509D01*
X149557209Y-95910509D01*
X152557209Y-95910509D01*
X152557209Y-102510509D01*
X153157209Y-103110509D01*
X156157209Y-103110509D01*
X156157209Y-113310509D01*
X142357209Y-113310509D01*
X142357209Y-109710509D01*
X138757209Y-109710509D01*
X138757209Y-106110509D01*
X132157209Y-106110509D01*
X132157209Y-102510509D01*
X128557209Y-102510509D01*
X128557209Y-99510509D01*
X124957209Y-99510509D01*
X124957209Y-95910509D01*
X121957209Y-95910509D01*
X121957209Y-92910509D01*
X114757209Y-92910509D01*
X114757209Y-95910509D01*
X111757209Y-95910509D01*
X111757209Y-99510509D01*
X108157209Y-99510509D01*
X108157209Y-103110509D01*
X104557209Y-103110509D01*
X104557209Y-106110509D01*
X100957209Y-106110509D01*
X100957209Y-109710509D01*
X97957209Y-109710509D01*
X97957209Y-113310509D01*
X84157209Y-113310509D01*
%TD*%
M02*
