%TF.GenerationSoftware,KiCad,Pcbnew,10.0.6*%
%TF.CreationDate,2026-10-07T14:16:34+11:00*%
%TF.ProjectId,Starbie,53746172-6269-4652-9e6b-696361645f70,rev?*%
%TF.SameCoordinates,Original*%
%TF.FileFunction,Copper,L2,Bot*%
%TF.FilePolarity,Positive*%
%FSLAX46Y46*%
G04 Gerber Fmt 4.6, Leading zero omitted, Abs format (unit mm)*
G04 Created by KiCad (PCBNEW 10.0.6) date 2026-10-07 14:16:34*
%MOMM*%
%LPD*%
G01*
G04 APERTURE LIST*
%TA.AperFunction,ComponentPad*%
%ADD10R,1.500000X1.500000*%
%TD*%
%TA.AperFunction,ComponentPad*%
%ADD11C,1.500000*%
%TD*%
%TA.AperFunction,ComponentPad*%
%ADD12C,2.200000*%
%TD*%
%TA.AperFunction,ComponentPad*%
%ADD13R,1.700000X1.700000*%
%TD*%
%TA.AperFunction,ComponentPad*%
%ADD14O,1.700000X1.700000*%
%TD*%
%TA.AperFunction,ComponentPad*%
%ADD15C,1.400000*%
%TD*%
%TA.AperFunction,ComponentPad*%
%ADD16C,1.700000*%
%TD*%
%TA.AperFunction,ComponentPad*%
%ADD17C,1.524000*%
%TD*%
%TA.AperFunction,Conductor*%
%ADD18C,0.400000*%
%TD*%
G04 APERTURE END LIST*
D10*
%TO.P,U1,1,VDD_1*%
%TO.N,+3.3V*%
X120590000Y-50750000D03*
D11*
%TO.P,U1,2,DATA_2*%
%TO.N,/DHT11 DATA*%
X118050000Y-50750000D03*
%TO.P,U1,3,NC_3*%
%TO.N,unconnected-(U1-NC-Pad3)*%
X115510000Y-50750000D03*
%TO.P,U1,4,GND_4*%
%TO.N,GND*%
X112970000Y-50750000D03*
%TD*%
D12*
%TO.P,SW1,1,1_1*%
%TO.N,/GPIO2*%
X94400000Y-62600000D03*
%TO.P,SW1,2,2_2*%
%TO.N,GND*%
X88050000Y-65140000D03*
%TD*%
D13*
%TO.P,J1,1,Pin_1_1*%
%TO.N,GND*%
X119186000Y-80399000D03*
D14*
%TO.P,J1,2,Pin_2_2*%
%TO.N,+3.3V*%
X116646000Y-80399000D03*
%TO.P,J1,3,Pin_3_3*%
%TO.N,/SCL*%
X114106000Y-80399000D03*
%TO.P,J1,4,Pin_4_4*%
%TO.N,/SDA*%
X111566000Y-80399000D03*
%TD*%
D15*
%TO.P,R1,1*%
%TO.N,+3.3V*%
X122540000Y-46400000D03*
%TO.P,R1,2*%
%TO.N,/DHT11 DATA*%
X114920000Y-46400000D03*
%TD*%
D12*
%TO.P,SW2,1,1_1*%
%TO.N,/GPIO3*%
X103000000Y-86800000D03*
%TO.P,SW2,2,2_2*%
%TO.N,GND*%
X96650000Y-89340000D03*
%TD*%
D13*
%TO.P,J2,1,Pin_1_1*%
%TO.N,+3.3V*%
X130600000Y-81710000D03*
D16*
%TO.P,J2,2,Pin_2_2*%
%TO.N,GND*%
X130600000Y-84250000D03*
%TO.P,J2,3,Pin_3_3*%
%TO.N,/SCL*%
X130600000Y-86790000D03*
%TO.P,J2,4,Pin_4_4*%
%TO.N,/SDA*%
X130600000Y-89330000D03*
%TO.P,J2,5,Pin_5_5*%
%TO.N,unconnected-(J2-Pin_5-Pad5)*%
X130600000Y-91870000D03*
%TO.P,J2,6,Pin_6_6*%
%TO.N,unconnected-(J2-Pin_6-Pad6)*%
X130600000Y-94410000D03*
%TO.P,J2,7,Pin_7_7*%
%TO.N,unconnected-(J2-Pin_7-Pad7)*%
X130600000Y-96950000D03*
%TO.P,J2,8,Pin_8_8*%
%TO.N,unconnected-(J2-Pin_8-Pad8)*%
X130600000Y-99490000D03*
%TD*%
D17*
%TO.P,U2,1,D0_1*%
%TO.N,unconnected-(U2-D0-Pad1)*%
X133110000Y-61070000D03*
%TO.P,U2,2,D1_2*%
%TO.N,/DHT11 DATA*%
X133110000Y-63610000D03*
%TO.P,U2,3,D2_3*%
%TO.N,/GPIO2*%
X133110000Y-66150000D03*
%TO.P,U2,4,D3_4*%
%TO.N,/GPIO3*%
X133110000Y-68690000D03*
%TO.P,U2,5,D4_5*%
%TO.N,/SCL*%
X133110000Y-71230000D03*
%TO.P,U2,6,D5_6*%
%TO.N,/SDA*%
X133110000Y-73770000D03*
%TO.P,U2,7,D6_7*%
%TO.N,unconnected-(U2-D6-Pad7)*%
X133110000Y-76310000D03*
%TO.P,U2,8,D7_8*%
%TO.N,unconnected-(U2-D7-Pad8)_1*%
X148350000Y-76310000D03*
%TO.P,U2,9,D8_9*%
%TO.N,unconnected-(U2-D8-Pad9)*%
X148350000Y-73770000D03*
%TO.P,U2,10,D9/BOOT_10*%
%TO.N,unconnected-(U2-D9{slash}BOOT-Pad10)_1*%
X148350000Y-71230000D03*
%TO.P,U2,11,D10_11*%
%TO.N,unconnected-(U2-D10-Pad11)*%
X148350000Y-68690000D03*
%TO.P,U2,12,3V3_OUT_12*%
%TO.N,+3.3V*%
X148350000Y-66150000D03*
%TO.P,U2,13,GND_13*%
%TO.N,GND*%
X148350000Y-63610000D03*
%TO.P,U2,14,VBUS_14*%
%TO.N,+5V*%
X148350000Y-61070000D03*
%TD*%
%TO.N,+3.3V*%
D18*
X146160000Y-66150000D02*
X130600000Y-81710000D01*
X130600000Y-81710000D02*
X130396000Y-81914000D01*
X120590000Y-75702000D02*
X120590000Y-50750000D01*
X130396000Y-81914000D02*
X118161000Y-81914000D01*
X116646000Y-79646000D02*
X120590000Y-75702000D01*
X118161000Y-81914000D02*
X116646000Y-80399000D01*
X116646000Y-80399000D02*
X116646000Y-79646000D01*
X148350000Y-66150000D02*
X146160000Y-66150000D01*
%TD*%
%TA.AperFunction,Conductor*%
%TO.N,GND*%
G36*
X121399748Y-31030694D02*
G01*
X121445503Y-31083498D01*
X121456709Y-31135009D01*
X121456709Y-37776400D01*
X121490817Y-37903696D01*
X121523763Y-37960759D01*
X121556709Y-38017823D01*
X121649895Y-38111009D01*
X121764023Y-38176901D01*
X121891317Y-38211009D01*
X124932709Y-38211009D01*
X124999748Y-38230694D01*
X125045503Y-38283498D01*
X125056709Y-38335009D01*
X125056709Y-44376400D01*
X125090817Y-44503696D01*
X125123763Y-44560759D01*
X125156709Y-44617823D01*
X125249895Y-44711009D01*
X125364023Y-44776901D01*
X125491317Y-44811009D01*
X127932709Y-44811009D01*
X127999748Y-44830694D01*
X128045503Y-44883498D01*
X128056709Y-44935009D01*
X128056709Y-51576400D01*
X128090817Y-51703696D01*
X128113126Y-51742335D01*
X128156709Y-51817823D01*
X128249895Y-51911009D01*
X128364023Y-51976901D01*
X128491317Y-52011009D01*
X131532709Y-52011009D01*
X131599748Y-52030694D01*
X131645503Y-52083498D01*
X131656709Y-52135009D01*
X131656709Y-54444617D01*
X131656709Y-54576401D01*
X131665500Y-54609208D01*
X131690817Y-54703696D01*
X131723763Y-54760759D01*
X131756709Y-54817823D01*
X131849895Y-54911009D01*
X131964023Y-54976901D01*
X132091317Y-55011009D01*
X135132709Y-55011009D01*
X135199748Y-55030694D01*
X135245503Y-55083498D01*
X135256709Y-55135009D01*
X135256709Y-58176400D01*
X135290817Y-58303696D01*
X135323763Y-58360759D01*
X135356709Y-58417823D01*
X135449895Y-58511009D01*
X135564023Y-58576901D01*
X135691317Y-58611009D01*
X166332709Y-58611009D01*
X166399748Y-58630694D01*
X166445503Y-58683498D01*
X166456709Y-58735009D01*
X166456709Y-61086009D01*
X166437024Y-61153048D01*
X166384220Y-61198803D01*
X166332709Y-61210009D01*
X163291317Y-61210009D01*
X163164021Y-61244117D01*
X163049895Y-61310009D01*
X163049892Y-61310011D01*
X162956711Y-61403192D01*
X162956709Y-61403195D01*
X162890817Y-61517321D01*
X162856709Y-61644617D01*
X162856709Y-64686009D01*
X162837024Y-64753048D01*
X162784220Y-64798803D01*
X162732709Y-64810009D01*
X159691317Y-64810009D01*
X159564021Y-64844117D01*
X159449895Y-64910009D01*
X159449892Y-64910011D01*
X159356711Y-65003192D01*
X159356709Y-65003195D01*
X159290817Y-65117321D01*
X159256709Y-65244617D01*
X159256709Y-67686009D01*
X159237024Y-67753048D01*
X159184220Y-67798803D01*
X159132709Y-67810009D01*
X156091317Y-67810009D01*
X155964021Y-67844117D01*
X155849895Y-67910009D01*
X155849892Y-67910011D01*
X155756711Y-68003192D01*
X155756709Y-68003195D01*
X155690817Y-68117321D01*
X155656709Y-68244617D01*
X155656709Y-71286009D01*
X155637024Y-71353048D01*
X155584220Y-71398803D01*
X155532709Y-71410009D01*
X152491317Y-71410009D01*
X152364021Y-71444117D01*
X152249895Y-71510009D01*
X152249892Y-71510011D01*
X152156711Y-71603192D01*
X152156709Y-71603195D01*
X152090817Y-71717321D01*
X152056709Y-71844617D01*
X152056709Y-77886009D01*
X152037024Y-77953048D01*
X151984220Y-77998803D01*
X151932709Y-78010009D01*
X149491317Y-78010009D01*
X149364021Y-78044117D01*
X149249895Y-78110009D01*
X149249892Y-78110011D01*
X149156711Y-78203192D01*
X149156709Y-78203195D01*
X149090817Y-78317321D01*
X149056709Y-78444617D01*
X149056709Y-81486009D01*
X149037024Y-81553048D01*
X148984220Y-81598803D01*
X148932709Y-81610009D01*
X145891317Y-81610009D01*
X145764021Y-81644117D01*
X145649895Y-81710009D01*
X145649892Y-81710011D01*
X145556711Y-81803192D01*
X145556709Y-81803195D01*
X145490817Y-81917321D01*
X145456709Y-82044617D01*
X145456709Y-85776400D01*
X145490817Y-85903696D01*
X145494577Y-85910208D01*
X145556709Y-86017823D01*
X145649895Y-86111009D01*
X145764023Y-86176901D01*
X145891317Y-86211009D01*
X148932709Y-86211009D01*
X148999748Y-86230694D01*
X149045503Y-86283498D01*
X149056709Y-86335009D01*
X149056709Y-95976400D01*
X149090817Y-96103696D01*
X149123763Y-96160759D01*
X149156709Y-96217823D01*
X149249895Y-96311009D01*
X149364023Y-96376901D01*
X149491317Y-96411009D01*
X151932709Y-96411009D01*
X151999748Y-96430694D01*
X152045503Y-96483498D01*
X152056709Y-96535009D01*
X152056709Y-102576400D01*
X152090817Y-102703696D01*
X152123763Y-102760759D01*
X152156709Y-102817823D01*
X152849895Y-103511009D01*
X152964023Y-103576901D01*
X153091316Y-103611009D01*
X153091317Y-103611009D01*
X155532709Y-103611009D01*
X155599748Y-103630694D01*
X155645503Y-103683498D01*
X155656709Y-103735009D01*
X155656709Y-112686009D01*
X155637024Y-112753048D01*
X155584220Y-112798803D01*
X155532709Y-112810009D01*
X142981709Y-112810009D01*
X142914670Y-112790324D01*
X142868915Y-112737520D01*
X142857709Y-112686009D01*
X142857709Y-109644619D01*
X142857709Y-109644617D01*
X142823601Y-109517323D01*
X142757709Y-109403195D01*
X142664523Y-109310009D01*
X142607459Y-109277063D01*
X142550396Y-109244117D01*
X142486748Y-109227063D01*
X142423101Y-109210009D01*
X142423100Y-109210009D01*
X139381709Y-109210009D01*
X139314670Y-109190324D01*
X139268915Y-109137520D01*
X139257709Y-109086009D01*
X139257709Y-106044619D01*
X139257709Y-106044617D01*
X139223601Y-105917323D01*
X139157709Y-105803195D01*
X139064523Y-105710009D01*
X139007459Y-105677063D01*
X138950396Y-105644117D01*
X138886748Y-105627063D01*
X138823101Y-105610009D01*
X138823100Y-105610009D01*
X132781709Y-105610009D01*
X132714670Y-105590324D01*
X132668915Y-105537520D01*
X132657709Y-105486009D01*
X132657709Y-102444619D01*
X132657709Y-102444617D01*
X132623601Y-102317323D01*
X132557709Y-102203195D01*
X132464523Y-102110009D01*
X132407459Y-102077063D01*
X132350396Y-102044117D01*
X132286748Y-102027063D01*
X132223101Y-102010009D01*
X132223100Y-102010009D01*
X129181709Y-102010009D01*
X129114670Y-101990324D01*
X129068915Y-101937520D01*
X129057709Y-101886009D01*
X129057709Y-99896529D01*
X129077394Y-99829490D01*
X129130198Y-99783735D01*
X129199356Y-99773791D01*
X129262912Y-99802816D01*
X129299639Y-99858209D01*
X129348443Y-100008412D01*
X129348444Y-100008414D01*
X129444951Y-100197820D01*
X129569890Y-100369786D01*
X129720213Y-100520109D01*
X129892179Y-100645048D01*
X129892181Y-100645049D01*
X129892184Y-100645051D01*
X130081588Y-100741557D01*
X130283757Y-100807246D01*
X130493713Y-100840500D01*
X130493714Y-100840500D01*
X130706286Y-100840500D01*
X130706287Y-100840500D01*
X130916243Y-100807246D01*
X131118412Y-100741557D01*
X131307816Y-100645051D01*
X131329789Y-100629086D01*
X131479786Y-100520109D01*
X131479788Y-100520106D01*
X131479792Y-100520104D01*
X131630104Y-100369792D01*
X131630106Y-100369788D01*
X131630109Y-100369786D01*
X131755048Y-100197820D01*
X131755047Y-100197820D01*
X131755051Y-100197816D01*
X131851557Y-100008412D01*
X131917246Y-99806243D01*
X131950500Y-99596287D01*
X131950500Y-99383713D01*
X131917246Y-99173757D01*
X131851557Y-98971588D01*
X131755051Y-98782184D01*
X131755049Y-98782181D01*
X131755048Y-98782179D01*
X131630109Y-98610213D01*
X131479786Y-98459890D01*
X131307820Y-98334951D01*
X131307115Y-98334591D01*
X131299054Y-98330485D01*
X131248259Y-98282512D01*
X131231463Y-98214692D01*
X131253999Y-98148556D01*
X131299054Y-98109515D01*
X131307816Y-98105051D01*
X131329789Y-98089086D01*
X131479786Y-97980109D01*
X131479788Y-97980106D01*
X131479792Y-97980104D01*
X131630104Y-97829792D01*
X131630106Y-97829788D01*
X131630109Y-97829786D01*
X131755048Y-97657820D01*
X131755047Y-97657820D01*
X131755051Y-97657816D01*
X131851557Y-97468412D01*
X131917246Y-97266243D01*
X131950500Y-97056287D01*
X131950500Y-96843713D01*
X131917246Y-96633757D01*
X131851557Y-96431588D01*
X131755051Y-96242184D01*
X131755049Y-96242181D01*
X131755048Y-96242179D01*
X131630109Y-96070213D01*
X131479786Y-95919890D01*
X131307820Y-95794951D01*
X131307115Y-95794591D01*
X131299054Y-95790485D01*
X131248259Y-95742512D01*
X131231463Y-95674692D01*
X131253999Y-95608556D01*
X131299054Y-95569515D01*
X131307816Y-95565051D01*
X131383573Y-95510011D01*
X131479786Y-95440109D01*
X131479788Y-95440106D01*
X131479792Y-95440104D01*
X131630104Y-95289792D01*
X131630106Y-95289788D01*
X131630109Y-95289786D01*
X131755048Y-95117820D01*
X131755047Y-95117820D01*
X131755051Y-95117816D01*
X131851557Y-94928412D01*
X131917246Y-94726243D01*
X131950500Y-94516287D01*
X131950500Y-94303713D01*
X131917246Y-94093757D01*
X131851557Y-93891588D01*
X131755051Y-93702184D01*
X131755049Y-93702181D01*
X131755048Y-93702179D01*
X131630109Y-93530213D01*
X131479786Y-93379890D01*
X131307820Y-93254951D01*
X131307115Y-93254591D01*
X131299054Y-93250485D01*
X131248259Y-93202512D01*
X131231463Y-93134692D01*
X131253999Y-93068556D01*
X131299054Y-93029515D01*
X131307816Y-93025051D01*
X131369136Y-92980500D01*
X131479786Y-92900109D01*
X131479788Y-92900106D01*
X131479792Y-92900104D01*
X131630104Y-92749792D01*
X131630106Y-92749788D01*
X131630109Y-92749786D01*
X131755048Y-92577820D01*
X131755047Y-92577820D01*
X131755051Y-92577816D01*
X131851557Y-92388412D01*
X131917246Y-92186243D01*
X131950500Y-91976287D01*
X131950500Y-91763713D01*
X131917246Y-91553757D01*
X131851557Y-91351588D01*
X131755051Y-91162184D01*
X131755049Y-91162181D01*
X131755048Y-91162179D01*
X131630109Y-90990213D01*
X131479786Y-90839890D01*
X131307820Y-90714951D01*
X131307115Y-90714591D01*
X131299054Y-90710485D01*
X131248259Y-90662512D01*
X131231463Y-90594692D01*
X131253999Y-90528556D01*
X131299054Y-90489515D01*
X131307816Y-90485051D01*
X131434571Y-90392959D01*
X131479786Y-90360109D01*
X131479788Y-90360106D01*
X131479792Y-90360104D01*
X131630104Y-90209792D01*
X131630106Y-90209788D01*
X131630109Y-90209786D01*
X131755048Y-90037820D01*
X131755047Y-90037820D01*
X131755051Y-90037816D01*
X131851557Y-89848412D01*
X131917246Y-89646243D01*
X131950500Y-89436287D01*
X131950500Y-89223713D01*
X131917246Y-89013757D01*
X131851557Y-88811588D01*
X131755051Y-88622184D01*
X131755049Y-88622181D01*
X131755048Y-88622179D01*
X131630109Y-88450213D01*
X131479786Y-88299890D01*
X131307820Y-88174951D01*
X131307115Y-88174591D01*
X131299054Y-88170485D01*
X131248259Y-88122512D01*
X131231463Y-88054692D01*
X131253999Y-87988556D01*
X131299054Y-87949515D01*
X131307816Y-87945051D01*
X131329789Y-87929086D01*
X131479786Y-87820109D01*
X131479788Y-87820106D01*
X131479792Y-87820104D01*
X131630104Y-87669792D01*
X131630106Y-87669788D01*
X131630109Y-87669786D01*
X131755048Y-87497820D01*
X131755047Y-87497820D01*
X131755051Y-87497816D01*
X131851557Y-87308412D01*
X131917246Y-87106243D01*
X131950500Y-86896287D01*
X131950500Y-86683713D01*
X131917246Y-86473757D01*
X131851557Y-86271588D01*
X131755051Y-86082184D01*
X131755049Y-86082181D01*
X131755048Y-86082179D01*
X131630109Y-85910213D01*
X131479786Y-85759890D01*
X131307817Y-85634949D01*
X131298504Y-85630204D01*
X131247707Y-85582230D01*
X131230912Y-85514409D01*
X131253449Y-85448274D01*
X131298507Y-85409232D01*
X131307555Y-85404622D01*
X131361716Y-85365270D01*
X131361717Y-85365270D01*
X130729408Y-84732962D01*
X130792993Y-84715925D01*
X130907007Y-84650099D01*
X131000099Y-84557007D01*
X131065925Y-84442993D01*
X131082962Y-84379409D01*
X131715270Y-85011717D01*
X131715270Y-85011716D01*
X131754622Y-84957554D01*
X131851095Y-84768217D01*
X131916757Y-84566130D01*
X131916757Y-84566127D01*
X131950000Y-84356246D01*
X131950000Y-84143753D01*
X131916757Y-83933872D01*
X131916757Y-83933869D01*
X131851095Y-83731782D01*
X131754624Y-83542449D01*
X131715270Y-83488282D01*
X131715269Y-83488282D01*
X131082962Y-84120590D01*
X131065925Y-84057007D01*
X131000099Y-83942993D01*
X130907007Y-83849901D01*
X130792993Y-83784075D01*
X130729409Y-83767037D01*
X131399627Y-83096818D01*
X131460950Y-83063333D01*
X131487307Y-83060499D01*
X131497872Y-83060499D01*
X131557483Y-83054091D01*
X131692331Y-83003796D01*
X131807546Y-82917546D01*
X131893796Y-82802331D01*
X131944091Y-82667483D01*
X131950500Y-82607873D01*
X131950499Y-81401517D01*
X131970184Y-81334479D01*
X131986813Y-81313842D01*
X146413838Y-66886819D01*
X146475161Y-66853334D01*
X146501519Y-66850500D01*
X147235226Y-66850500D01*
X147302265Y-66870185D01*
X147335542Y-66901612D01*
X147387019Y-66972464D01*
X147527536Y-67112981D01*
X147688306Y-67229787D01*
X147742798Y-67257552D01*
X147844780Y-67309515D01*
X147895576Y-67357490D01*
X147912371Y-67425311D01*
X147889833Y-67491446D01*
X147844780Y-67530485D01*
X147688305Y-67610213D01*
X147527533Y-67727021D01*
X147387021Y-67867533D01*
X147270213Y-68028305D01*
X147179994Y-68205367D01*
X147179993Y-68205370D01*
X147118587Y-68394362D01*
X147087500Y-68590639D01*
X147087500Y-68789360D01*
X147118587Y-68985637D01*
X147179993Y-69174629D01*
X147179994Y-69174632D01*
X147270213Y-69351694D01*
X147387019Y-69512464D01*
X147527536Y-69652981D01*
X147688306Y-69769787D01*
X147778293Y-69815638D01*
X147844780Y-69849515D01*
X147895576Y-69897490D01*
X147912371Y-69965311D01*
X147889833Y-70031446D01*
X147844780Y-70070485D01*
X147688305Y-70150213D01*
X147527533Y-70267021D01*
X147387021Y-70407533D01*
X147270213Y-70568305D01*
X147179994Y-70745367D01*
X147179993Y-70745370D01*
X147118587Y-70934362D01*
X147087500Y-71130639D01*
X147087500Y-71329360D01*
X147118587Y-71525637D01*
X147179993Y-71714629D01*
X147179994Y-71714632D01*
X147246226Y-71844617D01*
X147270213Y-71891694D01*
X147387019Y-72052464D01*
X147527536Y-72192981D01*
X147688306Y-72309787D01*
X147806832Y-72370179D01*
X147844780Y-72389515D01*
X147895576Y-72437490D01*
X147912371Y-72505311D01*
X147889833Y-72571446D01*
X147844780Y-72610485D01*
X147688305Y-72690213D01*
X147527533Y-72807021D01*
X147387021Y-72947533D01*
X147270213Y-73108305D01*
X147179994Y-73285367D01*
X147179993Y-73285370D01*
X147118587Y-73474362D01*
X147087500Y-73670639D01*
X147087500Y-73869360D01*
X147118587Y-74065637D01*
X147179993Y-74254629D01*
X147179994Y-74254632D01*
X147270213Y-74431694D01*
X147387019Y-74592464D01*
X147527536Y-74732981D01*
X147688306Y-74849787D01*
X147806832Y-74910179D01*
X147844780Y-74929515D01*
X147895576Y-74977490D01*
X147912371Y-75045311D01*
X147889833Y-75111446D01*
X147844780Y-75150485D01*
X147688305Y-75230213D01*
X147527533Y-75347021D01*
X147387021Y-75487533D01*
X147270213Y-75648305D01*
X147179994Y-75825367D01*
X147179993Y-75825370D01*
X147118587Y-76014362D01*
X147087500Y-76210639D01*
X147087500Y-76409360D01*
X147118587Y-76605637D01*
X147179993Y-76794629D01*
X147179994Y-76794632D01*
X147195662Y-76825381D01*
X147270213Y-76971694D01*
X147387019Y-77132464D01*
X147527536Y-77272981D01*
X147688306Y-77389787D01*
X147775149Y-77434035D01*
X147865367Y-77480005D01*
X147865370Y-77480006D01*
X147959866Y-77510709D01*
X148054364Y-77541413D01*
X148250639Y-77572500D01*
X148250640Y-77572500D01*
X148449360Y-77572500D01*
X148449361Y-77572500D01*
X148645636Y-77541413D01*
X148834632Y-77480005D01*
X149011694Y-77389787D01*
X149172464Y-77272981D01*
X149312981Y-77132464D01*
X149429787Y-76971694D01*
X149520005Y-76794632D01*
X149581413Y-76605636D01*
X149612500Y-76409361D01*
X149612500Y-76210639D01*
X149581413Y-76014364D01*
X149520005Y-75825368D01*
X149520005Y-75825367D01*
X149429786Y-75648305D01*
X149377545Y-75576401D01*
X149312981Y-75487536D01*
X149172464Y-75347019D01*
X149011694Y-75230213D01*
X148855218Y-75150484D01*
X148804423Y-75102510D01*
X148787628Y-75034689D01*
X148810165Y-74968554D01*
X148855218Y-74929515D01*
X149011694Y-74849787D01*
X149172464Y-74732981D01*
X149312981Y-74592464D01*
X149429787Y-74431694D01*
X149520005Y-74254632D01*
X149581413Y-74065636D01*
X149612500Y-73869361D01*
X149612500Y-73670639D01*
X149581413Y-73474364D01*
X149520005Y-73285368D01*
X149520005Y-73285367D01*
X149429786Y-73108305D01*
X149312981Y-72947536D01*
X149172464Y-72807019D01*
X149011694Y-72690213D01*
X148855218Y-72610484D01*
X148804423Y-72562510D01*
X148787628Y-72494689D01*
X148810165Y-72428554D01*
X148855218Y-72389515D01*
X149011694Y-72309787D01*
X149172464Y-72192981D01*
X149312981Y-72052464D01*
X149429787Y-71891694D01*
X149520005Y-71714632D01*
X149581413Y-71525636D01*
X149612500Y-71329361D01*
X149612500Y-71130639D01*
X149581413Y-70934364D01*
X149520005Y-70745368D01*
X149520005Y-70745367D01*
X149429786Y-70568305D01*
X149312981Y-70407536D01*
X149172464Y-70267019D01*
X149011694Y-70150213D01*
X148855218Y-70070484D01*
X148804423Y-70022510D01*
X148787628Y-69954689D01*
X148810165Y-69888554D01*
X148855218Y-69849515D01*
X149011694Y-69769787D01*
X149172464Y-69652981D01*
X149312981Y-69512464D01*
X149429787Y-69351694D01*
X149520005Y-69174632D01*
X149581413Y-68985636D01*
X149612500Y-68789361D01*
X149612500Y-68590639D01*
X149581413Y-68394364D01*
X149536712Y-68256788D01*
X149520006Y-68205370D01*
X149520005Y-68205367D01*
X149429786Y-68028305D01*
X149312981Y-67867536D01*
X149172464Y-67727019D01*
X149011694Y-67610213D01*
X148855218Y-67530484D01*
X148804423Y-67482510D01*
X148787628Y-67414689D01*
X148810165Y-67348554D01*
X148855218Y-67309515D01*
X149011694Y-67229787D01*
X149172464Y-67112981D01*
X149312981Y-66972464D01*
X149429787Y-66811694D01*
X149520005Y-66634632D01*
X149581413Y-66445636D01*
X149612500Y-66249361D01*
X149612500Y-66050639D01*
X149581413Y-65854364D01*
X149520005Y-65665368D01*
X149520005Y-65665367D01*
X149458350Y-65544364D01*
X149429787Y-65488306D01*
X149312981Y-65327536D01*
X149172464Y-65187019D01*
X149011694Y-65070213D01*
X148854667Y-64990203D01*
X148803872Y-64942229D01*
X148787077Y-64874408D01*
X148809614Y-64808273D01*
X148854669Y-64769234D01*
X149011422Y-64689364D01*
X149048716Y-64662268D01*
X148434095Y-64047647D01*
X148521571Y-64024208D01*
X148622930Y-63965689D01*
X148705689Y-63882930D01*
X148764208Y-63781571D01*
X148787647Y-63694094D01*
X149402268Y-64308715D01*
X149429362Y-64271425D01*
X149519542Y-64094437D01*
X149580924Y-63905523D01*
X149580924Y-63905520D01*
X149612000Y-63709321D01*
X149612000Y-63510678D01*
X149580924Y-63314479D01*
X149580924Y-63314476D01*
X149519542Y-63125562D01*
X149429358Y-62948567D01*
X149402268Y-62911283D01*
X148787647Y-63525904D01*
X148764208Y-63438429D01*
X148705689Y-63337070D01*
X148622930Y-63254311D01*
X148521571Y-63195792D01*
X148434094Y-63172352D01*
X149048716Y-62557731D01*
X149048715Y-62557730D01*
X149011432Y-62530641D01*
X148854668Y-62450765D01*
X148803872Y-62402790D01*
X148787077Y-62334969D01*
X148809615Y-62268834D01*
X148854667Y-62229796D01*
X149011694Y-62149787D01*
X149172464Y-62032981D01*
X149312981Y-61892464D01*
X149429787Y-61731694D01*
X149520005Y-61554632D01*
X149581413Y-61365636D01*
X149612500Y-61169361D01*
X149612500Y-60970639D01*
X149581413Y-60774364D01*
X149520005Y-60585368D01*
X149520005Y-60585367D01*
X149429786Y-60408305D01*
X149312981Y-60247536D01*
X149172464Y-60107019D01*
X149011694Y-59990213D01*
X148834632Y-59899994D01*
X148834629Y-59899993D01*
X148645637Y-59838587D01*
X148547498Y-59823043D01*
X148449361Y-59807500D01*
X148250639Y-59807500D01*
X148185214Y-59817862D01*
X148054362Y-59838587D01*
X147865370Y-59899993D01*
X147865367Y-59899994D01*
X147688305Y-59990213D01*
X147527533Y-60107021D01*
X147387021Y-60247533D01*
X147270213Y-60408305D01*
X147179994Y-60585367D01*
X147179993Y-60585370D01*
X147118587Y-60774362D01*
X147087500Y-60970639D01*
X147087500Y-61169360D01*
X147118587Y-61365637D01*
X147179993Y-61554629D01*
X147179994Y-61554632D01*
X147270213Y-61731694D01*
X147387019Y-61892464D01*
X147527536Y-62032981D01*
X147688306Y-62149787D01*
X147845332Y-62229796D01*
X147896127Y-62277769D01*
X147912922Y-62345590D01*
X147890385Y-62411725D01*
X147845332Y-62450764D01*
X147688566Y-62530641D01*
X147651283Y-62557729D01*
X147651282Y-62557730D01*
X148265906Y-63172352D01*
X148178429Y-63195792D01*
X148077070Y-63254311D01*
X147994311Y-63337070D01*
X147935792Y-63438429D01*
X147912352Y-63525905D01*
X147297730Y-62911282D01*
X147297729Y-62911283D01*
X147270643Y-62948564D01*
X147180457Y-63125562D01*
X147119075Y-63314476D01*
X147119075Y-63314479D01*
X147088000Y-63510678D01*
X147088000Y-63709321D01*
X147119075Y-63905520D01*
X147119075Y-63905523D01*
X147180457Y-64094437D01*
X147270641Y-64271432D01*
X147297730Y-64308715D01*
X147912352Y-63694093D01*
X147935792Y-63781571D01*
X147994311Y-63882930D01*
X148077070Y-63965689D01*
X148178429Y-64024208D01*
X148265905Y-64047647D01*
X147651283Y-64662268D01*
X147651283Y-64662269D01*
X147688567Y-64689358D01*
X147845331Y-64769234D01*
X147896127Y-64817209D01*
X147912922Y-64885030D01*
X147890384Y-64951165D01*
X147845331Y-64990204D01*
X147688305Y-65070213D01*
X147527533Y-65187021D01*
X147387021Y-65327533D01*
X147387019Y-65327536D01*
X147335542Y-65398386D01*
X147280214Y-65441051D01*
X147235226Y-65449500D01*
X146091004Y-65449500D01*
X145955677Y-65476418D01*
X145955667Y-65476421D01*
X145828192Y-65529222D01*
X145713454Y-65605887D01*
X134527445Y-76791896D01*
X134466122Y-76825381D01*
X134396430Y-76820397D01*
X134340497Y-76778525D01*
X134316080Y-76713061D01*
X134321832Y-76665898D01*
X134341413Y-76605636D01*
X134372500Y-76409361D01*
X134372500Y-76210639D01*
X134341413Y-76014364D01*
X134280005Y-75825368D01*
X134280005Y-75825367D01*
X134189786Y-75648305D01*
X134137545Y-75576401D01*
X134072981Y-75487536D01*
X133932464Y-75347019D01*
X133771694Y-75230213D01*
X133615218Y-75150484D01*
X133564423Y-75102510D01*
X133547628Y-75034689D01*
X133570165Y-74968554D01*
X133615218Y-74929515D01*
X133771694Y-74849787D01*
X133932464Y-74732981D01*
X134072981Y-74592464D01*
X134189787Y-74431694D01*
X134280005Y-74254632D01*
X134341413Y-74065636D01*
X134372500Y-73869361D01*
X134372500Y-73670639D01*
X134341413Y-73474364D01*
X134280005Y-73285368D01*
X134280005Y-73285367D01*
X134189786Y-73108305D01*
X134072981Y-72947536D01*
X133932464Y-72807019D01*
X133771694Y-72690213D01*
X133615218Y-72610484D01*
X133564423Y-72562510D01*
X133547628Y-72494689D01*
X133570165Y-72428554D01*
X133615218Y-72389515D01*
X133771694Y-72309787D01*
X133932464Y-72192981D01*
X134072981Y-72052464D01*
X134189787Y-71891694D01*
X134280005Y-71714632D01*
X134341413Y-71525636D01*
X134372500Y-71329361D01*
X134372500Y-71130639D01*
X134341413Y-70934364D01*
X134280005Y-70745368D01*
X134280005Y-70745367D01*
X134189786Y-70568305D01*
X134072981Y-70407536D01*
X133932464Y-70267019D01*
X133771694Y-70150213D01*
X133615218Y-70070484D01*
X133564423Y-70022510D01*
X133547628Y-69954689D01*
X133570165Y-69888554D01*
X133615218Y-69849515D01*
X133771694Y-69769787D01*
X133932464Y-69652981D01*
X134072981Y-69512464D01*
X134189787Y-69351694D01*
X134280005Y-69174632D01*
X134341413Y-68985636D01*
X134372500Y-68789361D01*
X134372500Y-68590639D01*
X134341413Y-68394364D01*
X134296712Y-68256788D01*
X134280006Y-68205370D01*
X134280005Y-68205367D01*
X134189786Y-68028305D01*
X134072981Y-67867536D01*
X133932464Y-67727019D01*
X133771694Y-67610213D01*
X133615218Y-67530484D01*
X133564423Y-67482510D01*
X133547628Y-67414689D01*
X133570165Y-67348554D01*
X133615218Y-67309515D01*
X133771694Y-67229787D01*
X133932464Y-67112981D01*
X134072981Y-66972464D01*
X134189787Y-66811694D01*
X134280005Y-66634632D01*
X134341413Y-66445636D01*
X134372500Y-66249361D01*
X134372500Y-66050639D01*
X134341413Y-65854364D01*
X134280005Y-65665368D01*
X134280005Y-65665367D01*
X134218350Y-65544364D01*
X134189787Y-65488306D01*
X134072981Y-65327536D01*
X133932464Y-65187019D01*
X133771694Y-65070213D01*
X133615218Y-64990484D01*
X133564423Y-64942510D01*
X133547628Y-64874689D01*
X133570165Y-64808554D01*
X133615218Y-64769515D01*
X133771694Y-64689787D01*
X133932464Y-64572981D01*
X134072981Y-64432464D01*
X134189787Y-64271694D01*
X134280005Y-64094632D01*
X134341413Y-63905636D01*
X134372500Y-63709361D01*
X134372500Y-63510639D01*
X134341413Y-63314364D01*
X134310709Y-63219866D01*
X134280006Y-63125370D01*
X134280005Y-63125367D01*
X134234035Y-63035149D01*
X134189787Y-62948306D01*
X134072981Y-62787536D01*
X133932464Y-62647019D01*
X133771694Y-62530213D01*
X133615218Y-62450484D01*
X133564423Y-62402510D01*
X133547628Y-62334689D01*
X133570165Y-62268554D01*
X133615218Y-62229515D01*
X133771694Y-62149787D01*
X133932464Y-62032981D01*
X134072981Y-61892464D01*
X134189787Y-61731694D01*
X134280005Y-61554632D01*
X134341413Y-61365636D01*
X134372500Y-61169361D01*
X134372500Y-60970639D01*
X134341413Y-60774364D01*
X134280005Y-60585368D01*
X134280005Y-60585367D01*
X134189786Y-60408305D01*
X134072981Y-60247536D01*
X133932464Y-60107019D01*
X133771694Y-59990213D01*
X133594632Y-59899994D01*
X133594629Y-59899993D01*
X133405637Y-59838587D01*
X133307498Y-59823043D01*
X133209361Y-59807500D01*
X133010639Y-59807500D01*
X132945214Y-59817862D01*
X132814362Y-59838587D01*
X132625370Y-59899993D01*
X132625367Y-59899994D01*
X132448305Y-59990213D01*
X132287533Y-60107021D01*
X132147021Y-60247533D01*
X132030213Y-60408305D01*
X131939994Y-60585367D01*
X131939993Y-60585370D01*
X131878587Y-60774362D01*
X131847500Y-60970639D01*
X131847500Y-61169360D01*
X131878587Y-61365637D01*
X131939993Y-61554629D01*
X131939994Y-61554632D01*
X132030213Y-61731694D01*
X132147019Y-61892464D01*
X132287536Y-62032981D01*
X132448306Y-62149787D01*
X132566832Y-62210179D01*
X132604780Y-62229515D01*
X132655576Y-62277490D01*
X132672371Y-62345311D01*
X132649833Y-62411446D01*
X132604780Y-62450485D01*
X132448305Y-62530213D01*
X132287533Y-62647021D01*
X132147021Y-62787533D01*
X132030213Y-62948305D01*
X131939994Y-63125367D01*
X131939993Y-63125370D01*
X131878587Y-63314362D01*
X131847500Y-63510639D01*
X131847500Y-63709360D01*
X131878587Y-63905637D01*
X131939993Y-64094629D01*
X131939994Y-64094632D01*
X132016162Y-64244117D01*
X132030213Y-64271694D01*
X132147019Y-64432464D01*
X132287536Y-64572981D01*
X132448306Y-64689787D01*
X132566832Y-64750179D01*
X132604780Y-64769515D01*
X132655576Y-64817490D01*
X132672371Y-64885311D01*
X132649833Y-64951446D01*
X132604780Y-64990485D01*
X132448305Y-65070213D01*
X132287533Y-65187021D01*
X132147021Y-65327533D01*
X132030213Y-65488305D01*
X131939994Y-65665367D01*
X131939993Y-65665370D01*
X131878587Y-65854362D01*
X131847500Y-66050639D01*
X131847500Y-66249360D01*
X131878587Y-66445637D01*
X131939993Y-66634629D01*
X131939994Y-66634632D01*
X131993055Y-66738768D01*
X132030213Y-66811694D01*
X132147019Y-66972464D01*
X132287536Y-67112981D01*
X132448306Y-67229787D01*
X132502798Y-67257552D01*
X132604780Y-67309515D01*
X132655576Y-67357490D01*
X132672371Y-67425311D01*
X132649833Y-67491446D01*
X132604780Y-67530485D01*
X132448305Y-67610213D01*
X132287533Y-67727021D01*
X132147021Y-67867533D01*
X132030213Y-68028305D01*
X131939994Y-68205367D01*
X131939993Y-68205370D01*
X131878587Y-68394362D01*
X131847500Y-68590639D01*
X131847500Y-68789360D01*
X131878587Y-68985637D01*
X131939993Y-69174629D01*
X131939994Y-69174632D01*
X132030213Y-69351694D01*
X132147019Y-69512464D01*
X132287536Y-69652981D01*
X132448306Y-69769787D01*
X132538293Y-69815638D01*
X132604780Y-69849515D01*
X132655576Y-69897490D01*
X132672371Y-69965311D01*
X132649833Y-70031446D01*
X132604780Y-70070485D01*
X132448305Y-70150213D01*
X132287533Y-70267021D01*
X132147021Y-70407533D01*
X132030213Y-70568305D01*
X131939994Y-70745367D01*
X131939993Y-70745370D01*
X131878587Y-70934362D01*
X131847500Y-71130639D01*
X131847500Y-71329360D01*
X131878587Y-71525637D01*
X131939993Y-71714629D01*
X131939994Y-71714632D01*
X132006226Y-71844617D01*
X132030213Y-71891694D01*
X132147019Y-72052464D01*
X132287536Y-72192981D01*
X132448306Y-72309787D01*
X132566832Y-72370179D01*
X132604780Y-72389515D01*
X132655576Y-72437490D01*
X132672371Y-72505311D01*
X132649833Y-72571446D01*
X132604780Y-72610485D01*
X132448305Y-72690213D01*
X132287533Y-72807021D01*
X132147021Y-72947533D01*
X132030213Y-73108305D01*
X131939994Y-73285367D01*
X131939993Y-73285370D01*
X131878587Y-73474362D01*
X131847500Y-73670639D01*
X131847500Y-73869360D01*
X131878587Y-74065637D01*
X131939993Y-74254629D01*
X131939994Y-74254632D01*
X132030213Y-74431694D01*
X132147019Y-74592464D01*
X132287536Y-74732981D01*
X132448306Y-74849787D01*
X132566832Y-74910179D01*
X132604780Y-74929515D01*
X132655576Y-74977490D01*
X132672371Y-75045311D01*
X132649833Y-75111446D01*
X132604780Y-75150485D01*
X132448305Y-75230213D01*
X132287533Y-75347021D01*
X132147021Y-75487533D01*
X132030213Y-75648305D01*
X131939994Y-75825367D01*
X131939993Y-75825370D01*
X131878587Y-76014362D01*
X131847500Y-76210639D01*
X131847500Y-76409360D01*
X131878587Y-76605637D01*
X131939993Y-76794629D01*
X131939994Y-76794632D01*
X131955662Y-76825381D01*
X132030213Y-76971694D01*
X132147019Y-77132464D01*
X132287536Y-77272981D01*
X132448306Y-77389787D01*
X132535149Y-77434035D01*
X132625367Y-77480005D01*
X132625370Y-77480006D01*
X132719866Y-77510709D01*
X132814364Y-77541413D01*
X133010639Y-77572500D01*
X133010640Y-77572500D01*
X133209360Y-77572500D01*
X133209361Y-77572500D01*
X133405636Y-77541413D01*
X133465897Y-77521832D01*
X133535738Y-77519838D01*
X133595571Y-77555918D01*
X133626399Y-77618619D01*
X133618435Y-77688033D01*
X133591896Y-77727445D01*
X130996160Y-80323181D01*
X130934837Y-80356666D01*
X130908479Y-80359500D01*
X129702129Y-80359500D01*
X129702123Y-80359501D01*
X129642516Y-80365908D01*
X129507671Y-80416202D01*
X129507664Y-80416206D01*
X129392455Y-80502452D01*
X129392452Y-80502455D01*
X129306206Y-80617664D01*
X129306202Y-80617671D01*
X129255908Y-80752517D01*
X129249501Y-80812116D01*
X129249500Y-80812135D01*
X129249500Y-81089500D01*
X129229815Y-81156539D01*
X129177011Y-81202294D01*
X129125500Y-81213500D01*
X128599758Y-81213500D01*
X128532719Y-81193815D01*
X128486964Y-81141011D01*
X128477020Y-81071853D01*
X128501382Y-81014014D01*
X128589635Y-80899000D01*
X128627261Y-80849965D01*
X128755104Y-80628535D01*
X128852950Y-80392313D01*
X128919126Y-80145340D01*
X128952500Y-79891843D01*
X128952500Y-79636157D01*
X128919126Y-79382660D01*
X128852950Y-79135687D01*
X128852947Y-79135679D01*
X128852946Y-79135676D01*
X128762500Y-78917321D01*
X128755104Y-78899465D01*
X128755102Y-78899462D01*
X128755100Y-78899457D01*
X128627265Y-78678042D01*
X128627261Y-78678035D01*
X128471610Y-78475187D01*
X128471605Y-78475181D01*
X128290818Y-78294394D01*
X128290811Y-78294388D01*
X128087973Y-78138745D01*
X128087971Y-78138743D01*
X128087965Y-78138739D01*
X128087960Y-78138736D01*
X128087957Y-78138734D01*
X127866542Y-78010899D01*
X127866531Y-78010894D01*
X127630322Y-77913053D01*
X127630315Y-77913051D01*
X127630313Y-77913050D01*
X127383340Y-77846874D01*
X127327007Y-77839457D01*
X127129850Y-77813500D01*
X127129843Y-77813500D01*
X125974157Y-77813500D01*
X125974149Y-77813500D01*
X125748826Y-77843165D01*
X125720660Y-77846874D01*
X125574606Y-77886009D01*
X125473687Y-77913050D01*
X125473677Y-77913053D01*
X125237468Y-78010894D01*
X125237457Y-78010899D01*
X125016042Y-78138734D01*
X125016026Y-78138745D01*
X124813188Y-78294388D01*
X124813181Y-78294394D01*
X124632394Y-78475181D01*
X124632388Y-78475188D01*
X124476745Y-78678026D01*
X124476734Y-78678042D01*
X124348899Y-78899457D01*
X124348894Y-78899468D01*
X124251054Y-79135676D01*
X124251050Y-79135687D01*
X124184874Y-79382661D01*
X124151500Y-79636149D01*
X124151500Y-79891850D01*
X124176635Y-80082757D01*
X124184874Y-80145340D01*
X124251050Y-80392312D01*
X124251053Y-80392322D01*
X124348894Y-80628531D01*
X124348899Y-80628542D01*
X124476734Y-80849957D01*
X124476745Y-80849973D01*
X124602618Y-81014014D01*
X124627812Y-81079183D01*
X124613774Y-81147628D01*
X124564960Y-81197617D01*
X124504242Y-81213500D01*
X120660000Y-81213500D01*
X120592961Y-81193815D01*
X120547206Y-81141011D01*
X120536000Y-81089500D01*
X120536000Y-80649000D01*
X119619012Y-80649000D01*
X119651925Y-80591993D01*
X119686000Y-80464826D01*
X119686000Y-80333174D01*
X119651925Y-80206007D01*
X119619012Y-80149000D01*
X120536000Y-80149000D01*
X120536000Y-79501172D01*
X120535999Y-79501155D01*
X120529598Y-79441627D01*
X120529596Y-79441620D01*
X120479354Y-79306913D01*
X120479350Y-79306906D01*
X120393190Y-79191812D01*
X120393187Y-79191809D01*
X120278093Y-79105649D01*
X120278086Y-79105645D01*
X120143379Y-79055403D01*
X120143372Y-79055401D01*
X120083844Y-79049000D01*
X119436000Y-79049000D01*
X119436000Y-79965988D01*
X119378993Y-79933075D01*
X119251826Y-79899000D01*
X119120174Y-79899000D01*
X118993007Y-79933075D01*
X118936000Y-79965988D01*
X118936000Y-79049000D01*
X118533017Y-79049000D01*
X118465978Y-79029315D01*
X118420223Y-78976511D01*
X118410279Y-78907353D01*
X118439304Y-78843797D01*
X118445319Y-78837336D01*
X121134114Y-76148543D01*
X121164819Y-76102587D01*
X121210775Y-76033811D01*
X121263580Y-75906328D01*
X121290500Y-75770993D01*
X121290500Y-56522149D01*
X124151500Y-56522149D01*
X124151500Y-56777850D01*
X124177457Y-56975007D01*
X124184874Y-57031340D01*
X124251050Y-57278312D01*
X124251053Y-57278322D01*
X124348894Y-57514531D01*
X124348899Y-57514542D01*
X124476734Y-57735957D01*
X124476745Y-57735973D01*
X124632388Y-57938811D01*
X124632394Y-57938818D01*
X124813181Y-58119605D01*
X124813187Y-58119610D01*
X125016035Y-58275261D01*
X125016042Y-58275265D01*
X125237457Y-58403100D01*
X125237462Y-58403102D01*
X125237465Y-58403104D01*
X125473687Y-58500950D01*
X125720660Y-58567126D01*
X125974157Y-58600500D01*
X125974164Y-58600500D01*
X127129836Y-58600500D01*
X127129843Y-58600500D01*
X127383340Y-58567126D01*
X127630313Y-58500950D01*
X127866535Y-58403104D01*
X128087965Y-58275261D01*
X128290813Y-58119610D01*
X128471610Y-57938813D01*
X128627261Y-57735965D01*
X128755104Y-57514535D01*
X128852950Y-57278313D01*
X128919126Y-57031340D01*
X128952500Y-56777843D01*
X128952500Y-56522157D01*
X128919126Y-56268660D01*
X128852950Y-56021687D01*
X128755104Y-55785465D01*
X128755102Y-55785462D01*
X128755100Y-55785457D01*
X128627265Y-55564042D01*
X128627261Y-55564035D01*
X128471610Y-55361187D01*
X128471605Y-55361181D01*
X128290818Y-55180394D01*
X128290811Y-55180388D01*
X128087973Y-55024745D01*
X128087971Y-55024743D01*
X128087965Y-55024739D01*
X128087960Y-55024736D01*
X128087957Y-55024734D01*
X127866542Y-54896899D01*
X127866531Y-54896894D01*
X127630322Y-54799053D01*
X127630315Y-54799051D01*
X127630313Y-54799050D01*
X127383340Y-54732874D01*
X127321352Y-54724713D01*
X127129850Y-54699500D01*
X127129843Y-54699500D01*
X125974157Y-54699500D01*
X125974149Y-54699500D01*
X125748826Y-54729165D01*
X125720660Y-54732874D01*
X125615401Y-54761078D01*
X125473687Y-54799050D01*
X125473677Y-54799053D01*
X125237468Y-54896894D01*
X125237457Y-54896899D01*
X125016042Y-55024734D01*
X125016026Y-55024745D01*
X124813188Y-55180388D01*
X124813181Y-55180394D01*
X124632394Y-55361181D01*
X124632388Y-55361188D01*
X124476745Y-55564026D01*
X124476734Y-55564042D01*
X124348899Y-55785457D01*
X124348894Y-55785468D01*
X124251053Y-56021677D01*
X124251050Y-56021687D01*
X124184874Y-56268661D01*
X124151500Y-56522149D01*
X121290500Y-56522149D01*
X121290500Y-52122351D01*
X121310185Y-52055312D01*
X121362989Y-52009557D01*
X121401247Y-51999061D01*
X121447483Y-51994091D01*
X121582331Y-51943796D01*
X121697546Y-51857546D01*
X121783796Y-51742331D01*
X121834091Y-51607483D01*
X121840500Y-51547873D01*
X121840499Y-49952128D01*
X121834091Y-49892517D01*
X121798157Y-49796174D01*
X121783797Y-49757671D01*
X121783793Y-49757664D01*
X121697547Y-49642455D01*
X121697544Y-49642452D01*
X121582335Y-49556206D01*
X121582328Y-49556202D01*
X121447482Y-49505908D01*
X121447483Y-49505908D01*
X121387883Y-49499501D01*
X121387881Y-49499500D01*
X121387873Y-49499500D01*
X121387864Y-49499500D01*
X119792129Y-49499500D01*
X119792123Y-49499501D01*
X119732516Y-49505908D01*
X119597671Y-49556202D01*
X119597664Y-49556206D01*
X119482455Y-49642452D01*
X119482452Y-49642455D01*
X119396206Y-49757664D01*
X119396202Y-49757671D01*
X119345908Y-49892517D01*
X119341303Y-49935354D01*
X119339501Y-49952123D01*
X119339500Y-49952135D01*
X119339500Y-50015732D01*
X119319815Y-50082771D01*
X119267011Y-50128526D01*
X119197853Y-50138470D01*
X119134297Y-50109445D01*
X119115182Y-50088618D01*
X119016020Y-49952135D01*
X119003828Y-49935354D01*
X118864646Y-49796172D01*
X118705405Y-49680476D01*
X118530029Y-49591117D01*
X118342826Y-49530290D01*
X118148422Y-49499500D01*
X118148417Y-49499500D01*
X117951583Y-49499500D01*
X117951578Y-49499500D01*
X117757173Y-49530290D01*
X117569970Y-49591117D01*
X117394594Y-49680476D01*
X117303741Y-49746485D01*
X117235354Y-49796172D01*
X117235352Y-49796174D01*
X117235351Y-49796174D01*
X117096174Y-49935351D01*
X117096174Y-49935352D01*
X117096172Y-49935354D01*
X117083980Y-49952135D01*
X116980476Y-50094594D01*
X116890485Y-50271213D01*
X116842511Y-50322009D01*
X116774690Y-50338804D01*
X116708555Y-50316267D01*
X116669515Y-50271213D01*
X116601879Y-50138470D01*
X116579524Y-50094595D01*
X116463828Y-49935354D01*
X116324646Y-49796172D01*
X116165405Y-49680476D01*
X115990029Y-49591117D01*
X115802826Y-49530290D01*
X115608422Y-49499500D01*
X115608417Y-49499500D01*
X115411583Y-49499500D01*
X115411578Y-49499500D01*
X115217173Y-49530290D01*
X115029970Y-49591117D01*
X114854594Y-49680476D01*
X114763741Y-49746485D01*
X114695354Y-49796172D01*
X114695352Y-49796174D01*
X114695351Y-49796174D01*
X114556174Y-49935351D01*
X114556174Y-49935352D01*
X114556172Y-49935354D01*
X114543980Y-49952135D01*
X114440476Y-50094594D01*
X114350204Y-50271764D01*
X114302229Y-50322560D01*
X114234408Y-50339355D01*
X114168274Y-50316818D01*
X114129234Y-50271764D01*
X114039096Y-50094858D01*
X114013678Y-50059873D01*
X114013677Y-50059873D01*
X113370000Y-50703551D01*
X113370000Y-50697339D01*
X113342741Y-50595606D01*
X113290080Y-50504394D01*
X113215606Y-50429920D01*
X113124394Y-50377259D01*
X113022661Y-50350000D01*
X113016447Y-50350000D01*
X113660125Y-49706320D01*
X113660125Y-49706319D01*
X113625145Y-49680905D01*
X113449835Y-49591581D01*
X113262705Y-49530778D01*
X113068382Y-49500000D01*
X112871618Y-49500000D01*
X112677294Y-49530778D01*
X112490161Y-49591582D01*
X112314863Y-49680899D01*
X112314859Y-49680902D01*
X112279873Y-49706320D01*
X112279872Y-49706320D01*
X112923554Y-50350000D01*
X112917339Y-50350000D01*
X112815606Y-50377259D01*
X112724394Y-50429920D01*
X112649920Y-50504394D01*
X112597259Y-50595606D01*
X112570000Y-50697339D01*
X112570000Y-50703552D01*
X111926320Y-50059872D01*
X111926320Y-50059873D01*
X111900902Y-50094859D01*
X111900899Y-50094863D01*
X111811582Y-50270161D01*
X111750778Y-50457294D01*
X111720000Y-50651617D01*
X111720000Y-50848382D01*
X111750778Y-51042705D01*
X111811581Y-51229835D01*
X111900905Y-51405145D01*
X111926319Y-51440125D01*
X111926320Y-51440125D01*
X112570000Y-50796445D01*
X112570000Y-50802661D01*
X112597259Y-50904394D01*
X112649920Y-50995606D01*
X112724394Y-51070080D01*
X112815606Y-51122741D01*
X112917339Y-51150000D01*
X112923553Y-51150000D01*
X112279873Y-51793677D01*
X112279873Y-51793678D01*
X112314858Y-51819096D01*
X112490164Y-51908418D01*
X112677294Y-51969221D01*
X112871618Y-52000000D01*
X113068382Y-52000000D01*
X113262705Y-51969221D01*
X113449835Y-51908418D01*
X113625143Y-51819095D01*
X113660125Y-51793678D01*
X113660126Y-51793678D01*
X113016448Y-51150000D01*
X113022661Y-51150000D01*
X113124394Y-51122741D01*
X113215606Y-51070080D01*
X113290080Y-50995606D01*
X113342741Y-50904394D01*
X113370000Y-50802661D01*
X113370000Y-50796447D01*
X114013678Y-51440126D01*
X114013678Y-51440125D01*
X114039097Y-51405141D01*
X114129234Y-51228236D01*
X114177208Y-51177439D01*
X114245029Y-51160644D01*
X114311164Y-51183181D01*
X114350204Y-51228235D01*
X114351115Y-51230024D01*
X114351116Y-51230025D01*
X114440476Y-51405405D01*
X114556172Y-51564646D01*
X114695354Y-51703828D01*
X114854595Y-51819524D01*
X114929214Y-51857544D01*
X115029970Y-51908882D01*
X115029972Y-51908882D01*
X115029975Y-51908884D01*
X115130317Y-51941487D01*
X115217173Y-51969709D01*
X115411578Y-52000500D01*
X115411583Y-52000500D01*
X115608422Y-52000500D01*
X115802826Y-51969709D01*
X115882574Y-51943797D01*
X115990025Y-51908884D01*
X116165405Y-51819524D01*
X116324646Y-51703828D01*
X116463828Y-51564646D01*
X116579524Y-51405405D01*
X116668884Y-51230025D01*
X116669515Y-51228787D01*
X116717489Y-51177990D01*
X116785310Y-51161195D01*
X116851445Y-51183732D01*
X116890485Y-51228787D01*
X116980474Y-51405403D01*
X116984817Y-51411380D01*
X117096172Y-51564646D01*
X117235354Y-51703828D01*
X117394595Y-51819524D01*
X117469214Y-51857544D01*
X117569970Y-51908882D01*
X117569972Y-51908882D01*
X117569975Y-51908884D01*
X117670317Y-51941487D01*
X117757173Y-51969709D01*
X117951578Y-52000500D01*
X117951583Y-52000500D01*
X118148422Y-52000500D01*
X118342826Y-51969709D01*
X118422574Y-51943797D01*
X118530025Y-51908884D01*
X118705405Y-51819524D01*
X118864646Y-51703828D01*
X119003828Y-51564646D01*
X119115184Y-51411378D01*
X119170512Y-51368714D01*
X119240125Y-51362735D01*
X119301920Y-51395341D01*
X119336277Y-51456179D01*
X119339500Y-51484263D01*
X119339500Y-51547869D01*
X119339501Y-51547876D01*
X119345908Y-51607483D01*
X119396202Y-51742328D01*
X119396206Y-51742335D01*
X119482452Y-51857544D01*
X119482455Y-51857547D01*
X119597664Y-51943793D01*
X119597671Y-51943797D01*
X119732516Y-51994091D01*
X119778757Y-51999063D01*
X119843307Y-52025801D01*
X119883155Y-52083194D01*
X119889500Y-52122352D01*
X119889500Y-75360480D01*
X119869815Y-75427519D01*
X119853181Y-75448161D01*
X116187613Y-79113728D01*
X116138255Y-79143976D01*
X116127596Y-79147439D01*
X116127589Y-79147442D01*
X115938182Y-79243949D01*
X115766213Y-79368890D01*
X115615890Y-79519213D01*
X115490949Y-79691182D01*
X115486484Y-79699946D01*
X115438509Y-79750742D01*
X115370688Y-79767536D01*
X115304553Y-79744998D01*
X115265516Y-79699946D01*
X115261050Y-79691182D01*
X115136109Y-79519213D01*
X114985786Y-79368890D01*
X114813820Y-79243951D01*
X114624414Y-79147444D01*
X114624413Y-79147443D01*
X114624412Y-79147443D01*
X114422243Y-79081754D01*
X114422241Y-79081753D01*
X114422240Y-79081753D01*
X114260957Y-79056208D01*
X114212287Y-79048500D01*
X113999713Y-79048500D01*
X113951042Y-79056208D01*
X113789760Y-79081753D01*
X113587585Y-79147444D01*
X113398179Y-79243951D01*
X113226213Y-79368890D01*
X113075890Y-79519213D01*
X112950949Y-79691182D01*
X112946484Y-79699946D01*
X112898509Y-79750742D01*
X112830688Y-79767536D01*
X112764553Y-79744998D01*
X112725516Y-79699946D01*
X112721050Y-79691182D01*
X112596109Y-79519213D01*
X112445786Y-79368890D01*
X112273820Y-79243951D01*
X112084414Y-79147444D01*
X112084413Y-79147443D01*
X112084412Y-79147443D01*
X111882243Y-79081754D01*
X111882241Y-79081753D01*
X111882240Y-79081753D01*
X111720957Y-79056208D01*
X111672287Y-79048500D01*
X111459713Y-79048500D01*
X111411042Y-79056208D01*
X111249760Y-79081753D01*
X111047585Y-79147444D01*
X110858179Y-79243951D01*
X110686213Y-79368890D01*
X110535890Y-79519213D01*
X110410951Y-79691179D01*
X110314444Y-79880585D01*
X110248753Y-80082760D01*
X110238262Y-80149000D01*
X110215500Y-80292713D01*
X110215500Y-80505287D01*
X110248754Y-80715243D01*
X110292525Y-80849957D01*
X110314444Y-80917414D01*
X110410951Y-81106820D01*
X110535890Y-81278786D01*
X110686213Y-81429109D01*
X110858179Y-81554048D01*
X110858181Y-81554049D01*
X110858184Y-81554051D01*
X111047588Y-81650557D01*
X111249757Y-81716246D01*
X111459713Y-81749500D01*
X111459714Y-81749500D01*
X111672286Y-81749500D01*
X111672287Y-81749500D01*
X111882243Y-81716246D01*
X112084412Y-81650557D01*
X112273816Y-81554051D01*
X112324675Y-81517100D01*
X112445786Y-81429109D01*
X112445788Y-81429106D01*
X112445792Y-81429104D01*
X112596104Y-81278792D01*
X112596106Y-81278788D01*
X112596109Y-81278786D01*
X112721048Y-81106820D01*
X112721047Y-81106820D01*
X112721051Y-81106816D01*
X112725514Y-81098054D01*
X112773488Y-81047259D01*
X112841308Y-81030463D01*
X112907444Y-81052999D01*
X112946486Y-81098056D01*
X112950951Y-81106820D01*
X113075890Y-81278786D01*
X113226213Y-81429109D01*
X113398179Y-81554048D01*
X113398181Y-81554049D01*
X113398184Y-81554051D01*
X113587588Y-81650557D01*
X113789757Y-81716246D01*
X113999713Y-81749500D01*
X113999714Y-81749500D01*
X114212286Y-81749500D01*
X114212287Y-81749500D01*
X114422243Y-81716246D01*
X114624412Y-81650557D01*
X114813816Y-81554051D01*
X114864675Y-81517100D01*
X114985786Y-81429109D01*
X114985788Y-81429106D01*
X114985792Y-81429104D01*
X115136104Y-81278792D01*
X115136106Y-81278788D01*
X115136109Y-81278786D01*
X115261048Y-81106820D01*
X115261047Y-81106820D01*
X115261051Y-81106816D01*
X115265514Y-81098054D01*
X115313488Y-81047259D01*
X115381308Y-81030463D01*
X115447444Y-81052999D01*
X115486486Y-81098056D01*
X115490951Y-81106820D01*
X115615890Y-81278786D01*
X115766213Y-81429109D01*
X115938179Y-81554048D01*
X115938181Y-81554049D01*
X115938184Y-81554051D01*
X116127588Y-81650557D01*
X116329757Y-81716246D01*
X116539713Y-81749500D01*
X116539714Y-81749500D01*
X116752286Y-81749500D01*
X116752287Y-81749500D01*
X116908771Y-81724715D01*
X116978064Y-81733670D01*
X117015850Y-81759507D01*
X117714453Y-82458111D01*
X117714454Y-82458112D01*
X117829192Y-82534777D01*
X117956667Y-82587578D01*
X117956672Y-82587580D01*
X117956676Y-82587580D01*
X117956677Y-82587581D01*
X118092003Y-82614500D01*
X118092006Y-82614500D01*
X118092007Y-82614500D01*
X129150052Y-82614500D01*
X129217091Y-82634185D01*
X129262846Y-82686989D01*
X129266234Y-82695167D01*
X129306202Y-82802328D01*
X129306206Y-82802335D01*
X129392452Y-82917544D01*
X129392455Y-82917547D01*
X129507664Y-83003793D01*
X129507671Y-83003797D01*
X129552618Y-83020561D01*
X129642517Y-83054091D01*
X129702127Y-83060500D01*
X129712685Y-83060499D01*
X129779723Y-83080179D01*
X129800372Y-83096818D01*
X130470591Y-83767037D01*
X130407007Y-83784075D01*
X130292993Y-83849901D01*
X130199901Y-83942993D01*
X130134075Y-84057007D01*
X130117037Y-84120591D01*
X129484728Y-83488282D01*
X129484727Y-83488282D01*
X129445380Y-83542439D01*
X129348904Y-83731782D01*
X129283242Y-83933869D01*
X129283242Y-83933872D01*
X129250000Y-84143753D01*
X129250000Y-84356246D01*
X129283242Y-84566127D01*
X129283242Y-84566130D01*
X129348904Y-84768217D01*
X129445375Y-84957550D01*
X129484728Y-85011716D01*
X130117037Y-84379408D01*
X130134075Y-84442993D01*
X130199901Y-84557007D01*
X130292993Y-84650099D01*
X130407007Y-84715925D01*
X130470590Y-84732962D01*
X129838282Y-85365269D01*
X129838282Y-85365270D01*
X129892452Y-85404626D01*
X129892451Y-85404626D01*
X129901495Y-85409234D01*
X129952292Y-85457208D01*
X129969087Y-85525029D01*
X129946550Y-85591164D01*
X129901499Y-85630202D01*
X129892182Y-85634949D01*
X129720213Y-85759890D01*
X129569890Y-85910213D01*
X129444951Y-86082179D01*
X129348444Y-86271585D01*
X129282753Y-86473760D01*
X129249500Y-86683713D01*
X129249500Y-86896286D01*
X129282753Y-87106239D01*
X129348444Y-87308414D01*
X129444951Y-87497820D01*
X129569890Y-87669786D01*
X129720213Y-87820109D01*
X129892182Y-87945050D01*
X129900946Y-87949516D01*
X129951742Y-87997491D01*
X129968536Y-88065312D01*
X129945998Y-88131447D01*
X129900946Y-88170484D01*
X129892182Y-88174949D01*
X129720213Y-88299890D01*
X129569890Y-88450213D01*
X129444951Y-88622179D01*
X129348444Y-88811585D01*
X129282753Y-89013760D01*
X129249500Y-89223713D01*
X129249500Y-89436286D01*
X129278252Y-89617823D01*
X129282754Y-89646243D01*
X129325207Y-89776900D01*
X129348444Y-89848414D01*
X129444951Y-90037820D01*
X129569890Y-90209786D01*
X129720213Y-90360109D01*
X129892182Y-90485050D01*
X129900946Y-90489516D01*
X129951742Y-90537491D01*
X129968536Y-90605312D01*
X129945998Y-90671447D01*
X129900946Y-90710484D01*
X129892182Y-90714949D01*
X129720213Y-90839890D01*
X129569890Y-90990213D01*
X129444951Y-91162179D01*
X129348444Y-91351585D01*
X129282753Y-91553760D01*
X129249500Y-91763713D01*
X129249500Y-91976286D01*
X129275065Y-92137701D01*
X129282754Y-92186243D01*
X129326212Y-92319993D01*
X129348444Y-92388414D01*
X129444951Y-92577820D01*
X129569890Y-92749786D01*
X129720213Y-92900109D01*
X129892182Y-93025050D01*
X129900946Y-93029516D01*
X129951742Y-93077491D01*
X129968536Y-93145312D01*
X129945998Y-93211447D01*
X129900946Y-93250484D01*
X129892182Y-93254949D01*
X129720213Y-93379890D01*
X129569890Y-93530213D01*
X129444951Y-93702179D01*
X129348444Y-93891585D01*
X129282753Y-94093760D01*
X129249500Y-94303713D01*
X129249500Y-94516286D01*
X129282753Y-94726239D01*
X129348444Y-94928414D01*
X129444951Y-95117820D01*
X129569890Y-95289786D01*
X129720213Y-95440109D01*
X129892182Y-95565050D01*
X129900946Y-95569516D01*
X129951742Y-95617491D01*
X129968536Y-95685312D01*
X129945998Y-95751447D01*
X129900946Y-95790484D01*
X129892182Y-95794949D01*
X129720213Y-95919890D01*
X129569890Y-96070213D01*
X129444951Y-96242179D01*
X129348444Y-96431585D01*
X129282753Y-96633760D01*
X129249500Y-96843713D01*
X129249500Y-97056286D01*
X129282753Y-97266239D01*
X129348444Y-97468414D01*
X129444951Y-97657820D01*
X129569890Y-97829786D01*
X129720213Y-97980109D01*
X129892182Y-98105050D01*
X129900946Y-98109516D01*
X129951742Y-98157491D01*
X129968536Y-98225312D01*
X129945998Y-98291447D01*
X129900946Y-98330484D01*
X129892182Y-98334949D01*
X129720213Y-98459890D01*
X129569890Y-98610213D01*
X129444951Y-98782179D01*
X129348444Y-98971585D01*
X129282753Y-99173759D01*
X129263400Y-99295947D01*
X129233470Y-99359081D01*
X129174158Y-99396012D01*
X129104296Y-99395014D01*
X129046063Y-99356404D01*
X129026362Y-99323991D01*
X129023603Y-99317331D01*
X129023601Y-99317323D01*
X128957709Y-99203195D01*
X128864523Y-99110009D01*
X128807459Y-99077063D01*
X128750396Y-99044117D01*
X128686748Y-99027063D01*
X128623101Y-99010009D01*
X128623100Y-99010009D01*
X125581709Y-99010009D01*
X125514670Y-98990324D01*
X125468915Y-98937520D01*
X125457709Y-98886009D01*
X125457709Y-95844619D01*
X125457709Y-95844617D01*
X125423601Y-95717323D01*
X125357709Y-95603195D01*
X125264523Y-95510009D01*
X125207459Y-95477063D01*
X125150396Y-95444117D01*
X125086748Y-95427063D01*
X125023101Y-95410009D01*
X125023100Y-95410009D01*
X122581709Y-95410009D01*
X122514670Y-95390324D01*
X122468915Y-95337520D01*
X122457709Y-95286009D01*
X122457709Y-92844619D01*
X122457709Y-92844617D01*
X122423601Y-92717323D01*
X122357709Y-92603195D01*
X122264523Y-92510009D01*
X122172342Y-92456788D01*
X122150396Y-92444117D01*
X122086748Y-92427063D01*
X122023101Y-92410009D01*
X114823101Y-92410009D01*
X114691317Y-92410009D01*
X114564021Y-92444117D01*
X114449895Y-92510009D01*
X114449892Y-92510011D01*
X114356711Y-92603192D01*
X114356709Y-92603195D01*
X114290817Y-92717321D01*
X114256709Y-92844617D01*
X114256709Y-95286009D01*
X114237024Y-95353048D01*
X114184220Y-95398803D01*
X114132709Y-95410009D01*
X111691317Y-95410009D01*
X111564021Y-95444117D01*
X111449895Y-95510009D01*
X111449892Y-95510011D01*
X111356711Y-95603192D01*
X111356709Y-95603195D01*
X111290817Y-95717321D01*
X111256709Y-95844617D01*
X111256709Y-98886009D01*
X111237024Y-98953048D01*
X111184220Y-98998803D01*
X111132709Y-99010009D01*
X108091317Y-99010009D01*
X107964021Y-99044117D01*
X107849895Y-99110009D01*
X107849892Y-99110011D01*
X107756711Y-99203192D01*
X107756709Y-99203195D01*
X107690817Y-99317321D01*
X107656709Y-99444617D01*
X107656709Y-102486009D01*
X107637024Y-102553048D01*
X107584220Y-102598803D01*
X107532709Y-102610009D01*
X104491317Y-102610009D01*
X104364021Y-102644117D01*
X104249895Y-102710009D01*
X104249892Y-102710011D01*
X104156711Y-102803192D01*
X104156709Y-102803195D01*
X104090817Y-102917321D01*
X104056709Y-103044617D01*
X104056709Y-105486009D01*
X104037024Y-105553048D01*
X103984220Y-105598803D01*
X103932709Y-105610009D01*
X100891317Y-105610009D01*
X100764021Y-105644117D01*
X100649895Y-105710009D01*
X100649892Y-105710011D01*
X100556711Y-105803192D01*
X100556709Y-105803195D01*
X100490817Y-105917321D01*
X100456709Y-106044617D01*
X100456709Y-109086009D01*
X100437024Y-109153048D01*
X100384220Y-109198803D01*
X100332709Y-109210009D01*
X97891317Y-109210009D01*
X97764021Y-109244117D01*
X97649895Y-109310009D01*
X97649892Y-109310011D01*
X97556711Y-109403192D01*
X97556709Y-109403195D01*
X97490817Y-109517321D01*
X97456709Y-109644617D01*
X97456709Y-112686009D01*
X97437024Y-112753048D01*
X97384220Y-112798803D01*
X97332709Y-112810009D01*
X84781709Y-112810009D01*
X84714670Y-112790324D01*
X84668915Y-112737520D01*
X84657709Y-112686009D01*
X84657709Y-100135009D01*
X84677394Y-100067970D01*
X84730198Y-100022215D01*
X84781709Y-100011009D01*
X87823099Y-100011009D01*
X87823101Y-100011009D01*
X87950395Y-99976901D01*
X88064523Y-99911009D01*
X88157709Y-99817823D01*
X88223601Y-99703695D01*
X88257709Y-99576401D01*
X88257709Y-91793389D01*
X94279500Y-91793389D01*
X94279500Y-91966611D01*
X94306598Y-92137701D01*
X94360127Y-92302445D01*
X94438768Y-92456788D01*
X94540586Y-92596928D01*
X94663072Y-92719414D01*
X94803212Y-92821232D01*
X94957555Y-92899873D01*
X95122299Y-92953402D01*
X95293389Y-92980500D01*
X95293390Y-92980500D01*
X95466610Y-92980500D01*
X95466611Y-92980500D01*
X95637701Y-92953402D01*
X95802445Y-92899873D01*
X95956788Y-92821232D01*
X96096928Y-92719414D01*
X96219414Y-92596928D01*
X96321232Y-92456788D01*
X96399873Y-92302445D01*
X96453402Y-92137701D01*
X96480500Y-91966611D01*
X96480500Y-91793389D01*
X96470854Y-91732486D01*
X98209500Y-91732486D01*
X98209500Y-92027513D01*
X98230398Y-92186243D01*
X98248007Y-92319993D01*
X98323890Y-92603195D01*
X98324361Y-92604951D01*
X98324364Y-92604961D01*
X98437254Y-92877500D01*
X98437258Y-92877510D01*
X98584761Y-93132993D01*
X98764352Y-93367040D01*
X98764358Y-93367047D01*
X98972952Y-93575641D01*
X98972959Y-93575647D01*
X99207006Y-93755238D01*
X99462489Y-93902741D01*
X99462490Y-93902741D01*
X99462493Y-93902743D01*
X99735048Y-94015639D01*
X100020007Y-94091993D01*
X100312494Y-94130500D01*
X100312501Y-94130500D01*
X100607499Y-94130500D01*
X100607506Y-94130500D01*
X100899993Y-94091993D01*
X101184952Y-94015639D01*
X101457507Y-93902743D01*
X101712994Y-93755238D01*
X101947042Y-93575646D01*
X102155646Y-93367042D01*
X102335238Y-93132994D01*
X102482743Y-92877507D01*
X102595639Y-92604952D01*
X102671993Y-92319993D01*
X102710500Y-92027506D01*
X102710500Y-91793389D01*
X104439500Y-91793389D01*
X104439500Y-91966611D01*
X104466598Y-92137701D01*
X104520127Y-92302445D01*
X104598768Y-92456788D01*
X104700586Y-92596928D01*
X104823072Y-92719414D01*
X104963212Y-92821232D01*
X105117555Y-92899873D01*
X105282299Y-92953402D01*
X105453389Y-92980500D01*
X105453390Y-92980500D01*
X105626610Y-92980500D01*
X105626611Y-92980500D01*
X105797701Y-92953402D01*
X105962445Y-92899873D01*
X106116788Y-92821232D01*
X106256928Y-92719414D01*
X106379414Y-92596928D01*
X106481232Y-92456788D01*
X106559873Y-92302445D01*
X106613402Y-92137701D01*
X106640500Y-91966611D01*
X106640500Y-91793389D01*
X106613402Y-91622299D01*
X106559873Y-91457555D01*
X106481232Y-91303212D01*
X106379414Y-91163072D01*
X106256928Y-91040586D01*
X106116788Y-90938768D01*
X105962445Y-90860127D01*
X105797701Y-90806598D01*
X105797699Y-90806597D01*
X105797698Y-90806597D01*
X105666271Y-90785781D01*
X105626611Y-90779500D01*
X105453389Y-90779500D01*
X105413728Y-90785781D01*
X105282302Y-90806597D01*
X105117552Y-90860128D01*
X104963211Y-90938768D01*
X104907115Y-90979525D01*
X104823072Y-91040586D01*
X104823070Y-91040588D01*
X104823069Y-91040588D01*
X104700588Y-91163069D01*
X104700588Y-91163070D01*
X104700586Y-91163072D01*
X104656859Y-91223256D01*
X104598768Y-91303211D01*
X104520128Y-91457552D01*
X104466597Y-91622302D01*
X104444200Y-91763713D01*
X104439500Y-91793389D01*
X102710500Y-91793389D01*
X102710500Y-91732494D01*
X102671993Y-91440007D01*
X102595639Y-91155048D01*
X102482743Y-90882493D01*
X102432604Y-90795650D01*
X102335238Y-90627006D01*
X102155647Y-90392959D01*
X102155641Y-90392952D01*
X101947047Y-90184358D01*
X101947040Y-90184352D01*
X101712993Y-90004761D01*
X101457510Y-89857258D01*
X101457500Y-89857254D01*
X101184961Y-89744364D01*
X101184954Y-89744362D01*
X101184952Y-89744361D01*
X100899993Y-89668007D01*
X100851113Y-89661571D01*
X100607513Y-89629500D01*
X100607506Y-89629500D01*
X100312494Y-89629500D01*
X100312486Y-89629500D01*
X100034085Y-89666153D01*
X100020007Y-89668007D01*
X99845861Y-89714669D01*
X99735048Y-89744361D01*
X99735038Y-89744364D01*
X99462499Y-89857254D01*
X99462489Y-89857258D01*
X99207006Y-90004761D01*
X98972959Y-90184352D01*
X98972952Y-90184358D01*
X98764358Y-90392952D01*
X98764352Y-90392959D01*
X98584761Y-90627006D01*
X98437258Y-90882489D01*
X98437254Y-90882499D01*
X98324364Y-91155038D01*
X98324361Y-91155048D01*
X98271700Y-91351585D01*
X98248008Y-91440004D01*
X98248006Y-91440015D01*
X98209500Y-91732486D01*
X96470854Y-91732486D01*
X96453402Y-91622299D01*
X96399873Y-91457555D01*
X96321232Y-91303212D01*
X96219414Y-91163072D01*
X96166882Y-91110540D01*
X96133397Y-91049217D01*
X96138381Y-90979525D01*
X96180253Y-90923592D01*
X96245717Y-90899175D01*
X96273961Y-90900386D01*
X96524072Y-90940000D01*
X96775928Y-90940000D01*
X97024669Y-90900602D01*
X97264184Y-90822780D01*
X97488575Y-90708446D01*
X97488581Y-90708442D01*
X97590697Y-90634250D01*
X97590698Y-90634250D01*
X96974025Y-90017578D01*
X97005258Y-90004641D01*
X97128097Y-89922563D01*
X97232563Y-89818097D01*
X97314641Y-89695258D01*
X97327578Y-89664025D01*
X97944250Y-90280698D01*
X97944250Y-90280697D01*
X98018442Y-90178581D01*
X98018446Y-90178575D01*
X98132780Y-89954184D01*
X98210602Y-89714669D01*
X98250000Y-89465928D01*
X98250000Y-89214071D01*
X98210602Y-88965330D01*
X98132780Y-88725815D01*
X98018442Y-88501416D01*
X97944250Y-88399301D01*
X97944250Y-88399300D01*
X97327577Y-89015973D01*
X97314641Y-88984742D01*
X97232563Y-88861903D01*
X97128097Y-88757437D01*
X97005258Y-88675359D01*
X96974024Y-88662421D01*
X97590698Y-88045748D01*
X97488583Y-87971557D01*
X97264184Y-87857219D01*
X97024669Y-87779397D01*
X96775928Y-87740000D01*
X96524072Y-87740000D01*
X96275330Y-87779397D01*
X96035815Y-87857219D01*
X95811413Y-87971559D01*
X95709301Y-88045747D01*
X95709300Y-88045748D01*
X96325974Y-88662421D01*
X96294742Y-88675359D01*
X96171903Y-88757437D01*
X96067437Y-88861903D01*
X95985359Y-88984742D01*
X95972421Y-89015974D01*
X95355748Y-88399300D01*
X95355747Y-88399301D01*
X95281559Y-88501413D01*
X95167219Y-88725815D01*
X95089397Y-88965330D01*
X95050000Y-89214071D01*
X95050000Y-89465928D01*
X95089397Y-89714669D01*
X95167219Y-89954184D01*
X95281557Y-90178583D01*
X95355748Y-90280697D01*
X95355748Y-90280698D01*
X95972421Y-89664024D01*
X95985359Y-89695258D01*
X96067437Y-89818097D01*
X96171903Y-89922563D01*
X96294742Y-90004641D01*
X96325974Y-90017577D01*
X95709300Y-90634250D01*
X95711598Y-90663449D01*
X95697233Y-90731827D01*
X95648181Y-90781583D01*
X95580016Y-90796921D01*
X95568583Y-90795650D01*
X95466611Y-90779500D01*
X95293389Y-90779500D01*
X95253728Y-90785781D01*
X95122302Y-90806597D01*
X94957552Y-90860128D01*
X94803211Y-90938768D01*
X94747115Y-90979525D01*
X94663072Y-91040586D01*
X94663070Y-91040588D01*
X94663069Y-91040588D01*
X94540588Y-91163069D01*
X94540588Y-91163070D01*
X94540586Y-91163072D01*
X94496859Y-91223256D01*
X94438768Y-91303211D01*
X94360128Y-91457552D01*
X94306597Y-91622302D01*
X94284200Y-91763713D01*
X94279500Y-91793389D01*
X88257709Y-91793389D01*
X88257709Y-89935009D01*
X88277394Y-89867970D01*
X88330198Y-89822215D01*
X88381709Y-89811009D01*
X90823099Y-89811009D01*
X90823101Y-89811009D01*
X90950395Y-89776901D01*
X91064523Y-89711009D01*
X91157709Y-89617823D01*
X91223601Y-89503695D01*
X91257709Y-89376401D01*
X91257709Y-86674038D01*
X101399500Y-86674038D01*
X101399500Y-86925961D01*
X101438910Y-87174785D01*
X101516760Y-87414383D01*
X101631132Y-87638848D01*
X101779201Y-87842649D01*
X101779205Y-87842654D01*
X101957345Y-88020794D01*
X101957350Y-88020798D01*
X102135117Y-88149952D01*
X102161155Y-88168870D01*
X102304184Y-88241747D01*
X102385616Y-88283239D01*
X102385618Y-88283239D01*
X102385621Y-88283241D01*
X102625215Y-88361090D01*
X102874038Y-88400500D01*
X102874039Y-88400500D01*
X103125961Y-88400500D01*
X103125962Y-88400500D01*
X103374785Y-88361090D01*
X103614379Y-88283241D01*
X103838845Y-88168870D01*
X104042656Y-88020793D01*
X104220793Y-87842656D01*
X104368870Y-87638845D01*
X104483241Y-87414379D01*
X104561090Y-87174785D01*
X104600500Y-86925962D01*
X104600500Y-86674038D01*
X104561090Y-86425215D01*
X104483241Y-86185621D01*
X104483239Y-86185618D01*
X104483239Y-86185616D01*
X104430535Y-86082179D01*
X104368870Y-85961155D01*
X104234639Y-85776401D01*
X104220798Y-85757350D01*
X104220794Y-85757345D01*
X104042654Y-85579205D01*
X104042649Y-85579201D01*
X103838848Y-85431132D01*
X103838847Y-85431131D01*
X103838845Y-85431130D01*
X103768747Y-85395413D01*
X103614383Y-85316760D01*
X103374785Y-85238910D01*
X103125962Y-85199500D01*
X102874038Y-85199500D01*
X102749626Y-85219205D01*
X102625214Y-85238910D01*
X102385616Y-85316760D01*
X102161151Y-85431132D01*
X101957350Y-85579201D01*
X101957345Y-85579205D01*
X101779205Y-85757345D01*
X101779201Y-85757350D01*
X101631132Y-85961151D01*
X101516760Y-86185616D01*
X101438910Y-86425214D01*
X101399500Y-86674038D01*
X91257709Y-86674038D01*
X91257709Y-79636149D01*
X101799500Y-79636149D01*
X101799500Y-79891850D01*
X101824635Y-80082757D01*
X101832874Y-80145340D01*
X101899050Y-80392312D01*
X101899053Y-80392322D01*
X101996894Y-80628531D01*
X101996899Y-80628542D01*
X102124734Y-80849957D01*
X102124745Y-80849973D01*
X102280388Y-81052811D01*
X102280394Y-81052818D01*
X102461181Y-81233605D01*
X102461187Y-81233610D01*
X102664035Y-81389261D01*
X102664042Y-81389265D01*
X102885457Y-81517100D01*
X102885462Y-81517102D01*
X102885465Y-81517104D01*
X103034426Y-81578805D01*
X103082704Y-81598803D01*
X103121687Y-81614950D01*
X103368660Y-81681126D01*
X103622157Y-81714500D01*
X103622164Y-81714500D01*
X104777836Y-81714500D01*
X104777843Y-81714500D01*
X105031340Y-81681126D01*
X105278313Y-81614950D01*
X105514535Y-81517104D01*
X105735965Y-81389261D01*
X105938813Y-81233610D01*
X106119610Y-81052813D01*
X106275261Y-80849965D01*
X106403104Y-80628535D01*
X106500950Y-80392313D01*
X106567126Y-80145340D01*
X106600500Y-79891843D01*
X106600500Y-79636157D01*
X106567126Y-79382660D01*
X106500950Y-79135687D01*
X106500947Y-79135679D01*
X106500946Y-79135676D01*
X106410500Y-78917321D01*
X106403104Y-78899465D01*
X106403102Y-78899462D01*
X106403100Y-78899457D01*
X106275265Y-78678042D01*
X106275261Y-78678035D01*
X106119610Y-78475187D01*
X106119605Y-78475181D01*
X105938818Y-78294394D01*
X105938811Y-78294388D01*
X105735973Y-78138745D01*
X105735971Y-78138743D01*
X105735965Y-78138739D01*
X105735960Y-78138736D01*
X105735957Y-78138734D01*
X105514542Y-78010899D01*
X105514531Y-78010894D01*
X105278322Y-77913053D01*
X105278315Y-77913051D01*
X105278313Y-77913050D01*
X105031340Y-77846874D01*
X104975007Y-77839457D01*
X104777850Y-77813500D01*
X104777843Y-77813500D01*
X103622157Y-77813500D01*
X103622149Y-77813500D01*
X103396826Y-77843165D01*
X103368660Y-77846874D01*
X103222606Y-77886009D01*
X103121687Y-77913050D01*
X103121677Y-77913053D01*
X102885468Y-78010894D01*
X102885457Y-78010899D01*
X102664042Y-78138734D01*
X102664026Y-78138745D01*
X102461188Y-78294388D01*
X102461181Y-78294394D01*
X102280394Y-78475181D01*
X102280388Y-78475188D01*
X102124745Y-78678026D01*
X102124734Y-78678042D01*
X101996899Y-78899457D01*
X101996894Y-78899468D01*
X101899054Y-79135676D01*
X101899050Y-79135687D01*
X101832874Y-79382661D01*
X101799500Y-79636149D01*
X91257709Y-79636149D01*
X91257709Y-79044617D01*
X91223601Y-78917323D01*
X91157709Y-78803195D01*
X91064523Y-78710009D01*
X91007459Y-78677063D01*
X90950396Y-78644117D01*
X90886748Y-78627063D01*
X90823101Y-78610009D01*
X90823100Y-78610009D01*
X88381709Y-78610009D01*
X88314670Y-78590324D01*
X88268915Y-78537520D01*
X88257709Y-78486009D01*
X88257709Y-75444619D01*
X88257709Y-75444617D01*
X88223601Y-75317323D01*
X88157709Y-75203195D01*
X88064523Y-75110009D01*
X87956255Y-75047500D01*
X87950396Y-75044117D01*
X87886748Y-75027063D01*
X87823101Y-75010009D01*
X87823100Y-75010009D01*
X84781709Y-75010009D01*
X84714670Y-74990324D01*
X84668915Y-74937520D01*
X84657709Y-74886009D01*
X84657709Y-71844619D01*
X84657709Y-71844617D01*
X84623601Y-71717323D01*
X84557709Y-71603195D01*
X84464523Y-71510009D01*
X84407459Y-71477063D01*
X84350396Y-71444117D01*
X84286748Y-71427063D01*
X84223101Y-71410009D01*
X84223100Y-71410009D01*
X81181709Y-71410009D01*
X81114670Y-71390324D01*
X81068915Y-71337520D01*
X81057709Y-71286009D01*
X81057709Y-68244619D01*
X81057709Y-68244617D01*
X81023601Y-68117323D01*
X80957709Y-68003195D01*
X80864523Y-67910009D01*
X80790953Y-67867533D01*
X80750396Y-67844117D01*
X80686748Y-67827063D01*
X80623101Y-67810009D01*
X80623100Y-67810009D01*
X77581709Y-67810009D01*
X77573023Y-67807458D01*
X77564062Y-67808747D01*
X77540021Y-67797768D01*
X77514670Y-67790324D01*
X77508742Y-67783483D01*
X77500506Y-67779722D01*
X77486216Y-67757487D01*
X77468915Y-67737520D01*
X77466627Y-67727005D01*
X77462732Y-67720944D01*
X77457709Y-67686009D01*
X77457709Y-67593389D01*
X85679500Y-67593389D01*
X85679500Y-67766611D01*
X85706598Y-67937701D01*
X85760127Y-68102445D01*
X85838768Y-68256788D01*
X85940586Y-68396928D01*
X86063072Y-68519414D01*
X86203212Y-68621232D01*
X86357555Y-68699873D01*
X86522299Y-68753402D01*
X86693389Y-68780500D01*
X86693390Y-68780500D01*
X86866610Y-68780500D01*
X86866611Y-68780500D01*
X87037701Y-68753402D01*
X87202445Y-68699873D01*
X87356788Y-68621232D01*
X87496928Y-68519414D01*
X87619414Y-68396928D01*
X87721232Y-68256788D01*
X87799873Y-68102445D01*
X87853402Y-67937701D01*
X87880500Y-67766611D01*
X87880500Y-67593389D01*
X87870854Y-67532486D01*
X89609500Y-67532486D01*
X89609500Y-67827513D01*
X89632630Y-68003195D01*
X89648007Y-68119993D01*
X89722212Y-68396930D01*
X89724361Y-68404951D01*
X89724364Y-68404961D01*
X89837254Y-68677500D01*
X89837258Y-68677510D01*
X89984761Y-68932993D01*
X90164352Y-69167040D01*
X90164358Y-69167047D01*
X90372952Y-69375641D01*
X90372959Y-69375647D01*
X90607006Y-69555238D01*
X90862489Y-69702741D01*
X90862490Y-69702741D01*
X90862493Y-69702743D01*
X91135048Y-69815639D01*
X91420007Y-69891993D01*
X91712494Y-69930500D01*
X91712501Y-69930500D01*
X92007499Y-69930500D01*
X92007506Y-69930500D01*
X92299993Y-69891993D01*
X92584952Y-69815639D01*
X92857507Y-69702743D01*
X93112994Y-69555238D01*
X93347042Y-69375646D01*
X93555646Y-69167042D01*
X93735238Y-68932994D01*
X93882743Y-68677507D01*
X93995639Y-68404952D01*
X94071993Y-68119993D01*
X94110500Y-67827506D01*
X94110500Y-67593389D01*
X95839500Y-67593389D01*
X95839500Y-67766611D01*
X95866598Y-67937701D01*
X95920127Y-68102445D01*
X95998768Y-68256788D01*
X96100586Y-68396928D01*
X96223072Y-68519414D01*
X96363212Y-68621232D01*
X96517555Y-68699873D01*
X96682299Y-68753402D01*
X96853389Y-68780500D01*
X96853390Y-68780500D01*
X97026610Y-68780500D01*
X97026611Y-68780500D01*
X97197701Y-68753402D01*
X97362445Y-68699873D01*
X97516788Y-68621232D01*
X97656928Y-68519414D01*
X97779414Y-68396928D01*
X97881232Y-68256788D01*
X97959873Y-68102445D01*
X98013402Y-67937701D01*
X98040500Y-67766611D01*
X98040500Y-67593389D01*
X98013402Y-67422299D01*
X97959873Y-67257555D01*
X97881232Y-67103212D01*
X97779414Y-66963072D01*
X97656928Y-66840586D01*
X97516788Y-66738768D01*
X97362445Y-66660127D01*
X97197701Y-66606598D01*
X97197699Y-66606597D01*
X97197698Y-66606597D01*
X97066271Y-66585781D01*
X97026611Y-66579500D01*
X96853389Y-66579500D01*
X96813728Y-66585781D01*
X96682302Y-66606597D01*
X96517552Y-66660128D01*
X96363211Y-66738768D01*
X96307115Y-66779525D01*
X96223072Y-66840586D01*
X96223070Y-66840588D01*
X96223069Y-66840588D01*
X96100588Y-66963069D01*
X96100588Y-66963070D01*
X96100586Y-66963072D01*
X96093761Y-66972466D01*
X95998768Y-67103211D01*
X95920128Y-67257552D01*
X95866597Y-67422302D01*
X95839500Y-67593389D01*
X94110500Y-67593389D01*
X94110500Y-67532494D01*
X94071993Y-67240007D01*
X93995639Y-66955048D01*
X93882743Y-66682493D01*
X93832604Y-66595650D01*
X93735238Y-66427006D01*
X93555647Y-66192959D01*
X93555641Y-66192952D01*
X93347047Y-65984358D01*
X93347040Y-65984352D01*
X93112993Y-65804761D01*
X92857510Y-65657258D01*
X92857500Y-65657254D01*
X92584961Y-65544364D01*
X92584954Y-65544362D01*
X92584952Y-65544361D01*
X92299993Y-65468007D01*
X92251113Y-65461571D01*
X92007513Y-65429500D01*
X92007506Y-65429500D01*
X91712494Y-65429500D01*
X91712486Y-65429500D01*
X91434085Y-65466153D01*
X91420007Y-65468007D01*
X91286817Y-65503695D01*
X91135048Y-65544361D01*
X91135038Y-65544364D01*
X90862499Y-65657254D01*
X90862489Y-65657258D01*
X90607006Y-65804761D01*
X90372959Y-65984352D01*
X90372952Y-65984358D01*
X90164358Y-66192952D01*
X90164352Y-66192959D01*
X89984761Y-66427006D01*
X89837258Y-66682489D01*
X89837254Y-66682499D01*
X89724364Y-66955038D01*
X89724361Y-66955048D01*
X89650746Y-67229787D01*
X89648008Y-67240004D01*
X89648006Y-67240015D01*
X89609500Y-67532486D01*
X87870854Y-67532486D01*
X87853402Y-67422299D01*
X87799873Y-67257555D01*
X87721232Y-67103212D01*
X87619414Y-66963072D01*
X87566882Y-66910540D01*
X87533397Y-66849217D01*
X87538381Y-66779525D01*
X87580253Y-66723592D01*
X87645717Y-66699175D01*
X87673961Y-66700386D01*
X87924072Y-66740000D01*
X88175928Y-66740000D01*
X88424669Y-66700602D01*
X88664184Y-66622780D01*
X88888575Y-66508446D01*
X88888581Y-66508442D01*
X88990697Y-66434250D01*
X88990698Y-66434250D01*
X88374025Y-65817578D01*
X88405258Y-65804641D01*
X88528097Y-65722563D01*
X88632563Y-65618097D01*
X88714641Y-65495258D01*
X88727577Y-65464025D01*
X89344250Y-66080698D01*
X89344250Y-66080697D01*
X89418442Y-65978581D01*
X89418446Y-65978575D01*
X89532780Y-65754184D01*
X89610602Y-65514669D01*
X89650000Y-65265928D01*
X89650000Y-65014071D01*
X89610602Y-64765330D01*
X89532780Y-64525815D01*
X89418442Y-64301416D01*
X89344250Y-64199301D01*
X89344250Y-64199300D01*
X88727577Y-64815973D01*
X88714641Y-64784742D01*
X88632563Y-64661903D01*
X88528097Y-64557437D01*
X88405258Y-64475359D01*
X88374024Y-64462421D01*
X88990698Y-63845748D01*
X88888583Y-63771557D01*
X88664184Y-63657219D01*
X88424669Y-63579397D01*
X88175928Y-63540000D01*
X87924072Y-63540000D01*
X87675330Y-63579397D01*
X87435815Y-63657219D01*
X87211413Y-63771559D01*
X87109301Y-63845747D01*
X87109300Y-63845748D01*
X87725974Y-64462421D01*
X87694742Y-64475359D01*
X87571903Y-64557437D01*
X87467437Y-64661903D01*
X87385359Y-64784742D01*
X87372421Y-64815974D01*
X86755748Y-64199300D01*
X86755747Y-64199301D01*
X86681559Y-64301413D01*
X86567219Y-64525815D01*
X86489397Y-64765330D01*
X86450000Y-65014071D01*
X86450000Y-65265928D01*
X86489397Y-65514669D01*
X86567219Y-65754184D01*
X86681557Y-65978583D01*
X86755748Y-66080697D01*
X86755748Y-66080698D01*
X87372421Y-65464024D01*
X87385359Y-65495258D01*
X87467437Y-65618097D01*
X87571903Y-65722563D01*
X87694742Y-65804641D01*
X87725974Y-65817577D01*
X87109300Y-66434250D01*
X87111598Y-66463449D01*
X87097233Y-66531827D01*
X87048181Y-66581583D01*
X86980016Y-66596921D01*
X86968583Y-66595650D01*
X86866611Y-66579500D01*
X86693389Y-66579500D01*
X86653728Y-66585781D01*
X86522302Y-66606597D01*
X86357552Y-66660128D01*
X86203211Y-66738768D01*
X86147115Y-66779525D01*
X86063072Y-66840586D01*
X86063070Y-66840588D01*
X86063069Y-66840588D01*
X85940588Y-66963069D01*
X85940588Y-66963070D01*
X85940586Y-66963072D01*
X85933761Y-66972466D01*
X85838768Y-67103211D01*
X85760128Y-67257552D01*
X85706597Y-67422302D01*
X85679500Y-67593389D01*
X77457709Y-67593389D01*
X77457709Y-64644619D01*
X77457709Y-64644617D01*
X77423601Y-64517323D01*
X77357709Y-64403195D01*
X77264523Y-64310009D01*
X77197694Y-64271425D01*
X77150396Y-64244117D01*
X77086748Y-64227063D01*
X77023101Y-64210009D01*
X77023100Y-64210009D01*
X74581709Y-64210009D01*
X74573023Y-64207458D01*
X74564062Y-64208747D01*
X74540021Y-64197768D01*
X74514670Y-64190324D01*
X74508742Y-64183483D01*
X74500506Y-64179722D01*
X74486216Y-64157487D01*
X74468915Y-64137520D01*
X74466627Y-64127005D01*
X74462732Y-64120944D01*
X74457709Y-64086009D01*
X74457709Y-62474038D01*
X92799500Y-62474038D01*
X92799500Y-62725962D01*
X92828852Y-62911282D01*
X92838910Y-62974785D01*
X92916760Y-63214383D01*
X92967761Y-63314476D01*
X93030918Y-63438429D01*
X93031132Y-63438848D01*
X93179201Y-63642649D01*
X93179205Y-63642654D01*
X93357345Y-63820794D01*
X93357350Y-63820798D01*
X93474122Y-63905637D01*
X93561155Y-63968870D01*
X93704184Y-64041747D01*
X93785616Y-64083239D01*
X93785618Y-64083239D01*
X93785621Y-64083241D01*
X94025215Y-64161090D01*
X94274038Y-64200500D01*
X94274039Y-64200500D01*
X94525961Y-64200500D01*
X94525962Y-64200500D01*
X94774785Y-64161090D01*
X95014379Y-64083241D01*
X95238845Y-63968870D01*
X95442656Y-63820793D01*
X95620793Y-63642656D01*
X95768870Y-63438845D01*
X95883241Y-63214379D01*
X95961090Y-62974785D01*
X96000500Y-62725962D01*
X96000500Y-62474038D01*
X95961090Y-62225215D01*
X95883241Y-61985621D01*
X95883239Y-61985618D01*
X95883239Y-61985616D01*
X95835775Y-61892464D01*
X95768870Y-61761155D01*
X95684202Y-61644619D01*
X95620798Y-61557350D01*
X95620794Y-61557345D01*
X95442654Y-61379205D01*
X95442649Y-61379201D01*
X95238848Y-61231132D01*
X95238847Y-61231131D01*
X95238845Y-61231130D01*
X95158759Y-61190324D01*
X95014383Y-61116760D01*
X94774785Y-61038910D01*
X94525962Y-60999500D01*
X94274038Y-60999500D01*
X94149626Y-61019205D01*
X94025214Y-61038910D01*
X93785616Y-61116760D01*
X93561151Y-61231132D01*
X93357350Y-61379201D01*
X93357345Y-61379205D01*
X93179205Y-61557345D01*
X93179201Y-61557350D01*
X93031132Y-61761151D01*
X92916760Y-61985616D01*
X92838910Y-62225214D01*
X92819844Y-62345590D01*
X92799500Y-62474038D01*
X74457709Y-62474038D01*
X74457709Y-61644619D01*
X74457709Y-61644617D01*
X74423601Y-61517323D01*
X74357709Y-61403195D01*
X74264523Y-61310009D01*
X74207459Y-61277063D01*
X74150396Y-61244117D01*
X74086748Y-61227063D01*
X74023101Y-61210009D01*
X74023100Y-61210009D01*
X70981709Y-61210009D01*
X70914670Y-61190324D01*
X70868915Y-61137520D01*
X70857709Y-61086009D01*
X70857709Y-58735009D01*
X70877394Y-58667970D01*
X70930198Y-58622215D01*
X70981709Y-58611009D01*
X101623099Y-58611009D01*
X101623101Y-58611009D01*
X101750395Y-58576901D01*
X101864523Y-58511009D01*
X101957709Y-58417823D01*
X102023601Y-58303695D01*
X102057709Y-58176401D01*
X102057709Y-58013902D01*
X102077394Y-57946863D01*
X102130198Y-57901108D01*
X102199356Y-57891164D01*
X102262912Y-57920189D01*
X102277642Y-57935824D01*
X102277714Y-57935762D01*
X102279466Y-57937760D01*
X102280087Y-57938419D01*
X102280387Y-57938810D01*
X102280394Y-57938818D01*
X102461181Y-58119605D01*
X102461187Y-58119610D01*
X102664035Y-58275261D01*
X102664042Y-58275265D01*
X102885457Y-58403100D01*
X102885462Y-58403102D01*
X102885465Y-58403104D01*
X103121687Y-58500950D01*
X103368660Y-58567126D01*
X103622157Y-58600500D01*
X103622164Y-58600500D01*
X104777836Y-58600500D01*
X104777843Y-58600500D01*
X105031340Y-58567126D01*
X105278313Y-58500950D01*
X105514535Y-58403104D01*
X105735965Y-58275261D01*
X105938813Y-58119610D01*
X106119610Y-57938813D01*
X106275261Y-57735965D01*
X106403104Y-57514535D01*
X106500950Y-57278313D01*
X106567126Y-57031340D01*
X106600500Y-56777843D01*
X106600500Y-56522157D01*
X106567126Y-56268660D01*
X106500950Y-56021687D01*
X106403104Y-55785465D01*
X106403102Y-55785462D01*
X106403100Y-55785457D01*
X106275265Y-55564042D01*
X106275261Y-55564035D01*
X106119610Y-55361187D01*
X106119605Y-55361181D01*
X105938818Y-55180394D01*
X105938811Y-55180388D01*
X105735973Y-55024745D01*
X105735971Y-55024743D01*
X105735965Y-55024739D01*
X105735960Y-55024736D01*
X105735957Y-55024734D01*
X105514542Y-54896899D01*
X105514531Y-54896894D01*
X105278322Y-54799053D01*
X105278315Y-54799051D01*
X105278316Y-54799051D01*
X105278313Y-54799050D01*
X105136597Y-54761077D01*
X105076938Y-54724713D01*
X105046409Y-54661866D01*
X105048918Y-54609208D01*
X105057709Y-54576401D01*
X105057709Y-48535009D01*
X105077394Y-48467970D01*
X105130198Y-48422215D01*
X105181709Y-48411009D01*
X108223099Y-48411009D01*
X108223101Y-48411009D01*
X108350395Y-48376901D01*
X108464523Y-48311009D01*
X108557709Y-48217823D01*
X108623601Y-48103695D01*
X108657709Y-47976401D01*
X108657709Y-46305513D01*
X113719500Y-46305513D01*
X113719500Y-46494486D01*
X113749059Y-46681118D01*
X113807454Y-46860836D01*
X113893240Y-47029199D01*
X114004310Y-47182073D01*
X114137927Y-47315690D01*
X114290801Y-47426760D01*
X114370347Y-47467290D01*
X114459163Y-47512545D01*
X114459165Y-47512545D01*
X114459168Y-47512547D01*
X114555497Y-47543846D01*
X114638881Y-47570940D01*
X114825514Y-47600500D01*
X114825519Y-47600500D01*
X115014486Y-47600500D01*
X115201118Y-47570940D01*
X115380832Y-47512547D01*
X115549199Y-47426760D01*
X115702073Y-47315690D01*
X115835690Y-47182073D01*
X115946760Y-47029199D01*
X116032547Y-46860832D01*
X116090940Y-46681118D01*
X116120500Y-46494486D01*
X116120500Y-46305513D01*
X121339500Y-46305513D01*
X121339500Y-46494486D01*
X121369059Y-46681118D01*
X121427454Y-46860836D01*
X121513240Y-47029199D01*
X121624310Y-47182073D01*
X121757927Y-47315690D01*
X121910801Y-47426760D01*
X121990347Y-47467290D01*
X122079163Y-47512545D01*
X122079165Y-47512545D01*
X122079168Y-47512547D01*
X122175497Y-47543846D01*
X122258881Y-47570940D01*
X122445514Y-47600500D01*
X122445519Y-47600500D01*
X122634486Y-47600500D01*
X122821118Y-47570940D01*
X123000832Y-47512547D01*
X123169199Y-47426760D01*
X123322073Y-47315690D01*
X123455690Y-47182073D01*
X123566760Y-47029199D01*
X123652547Y-46860832D01*
X123710940Y-46681118D01*
X123740500Y-46494486D01*
X123740500Y-46305513D01*
X123710940Y-46118881D01*
X123652545Y-45939163D01*
X123566759Y-45770800D01*
X123455690Y-45617927D01*
X123322073Y-45484310D01*
X123169199Y-45373240D01*
X123000836Y-45287454D01*
X122821118Y-45229059D01*
X122634486Y-45199500D01*
X122634481Y-45199500D01*
X122445519Y-45199500D01*
X122445514Y-45199500D01*
X122258881Y-45229059D01*
X122079163Y-45287454D01*
X121910800Y-45373240D01*
X121823579Y-45436610D01*
X121757927Y-45484310D01*
X121757925Y-45484312D01*
X121757924Y-45484312D01*
X121624312Y-45617924D01*
X121624312Y-45617925D01*
X121624310Y-45617927D01*
X121576610Y-45683579D01*
X121513240Y-45770800D01*
X121427454Y-45939163D01*
X121369059Y-46118881D01*
X121339500Y-46305513D01*
X116120500Y-46305513D01*
X116090940Y-46118881D01*
X116032545Y-45939163D01*
X115946759Y-45770800D01*
X115835690Y-45617927D01*
X115702073Y-45484310D01*
X115549199Y-45373240D01*
X115380836Y-45287454D01*
X115201118Y-45229059D01*
X115014486Y-45199500D01*
X115014481Y-45199500D01*
X114825519Y-45199500D01*
X114825514Y-45199500D01*
X114638881Y-45229059D01*
X114459163Y-45287454D01*
X114290800Y-45373240D01*
X114203579Y-45436610D01*
X114137927Y-45484310D01*
X114137925Y-45484312D01*
X114137924Y-45484312D01*
X114004312Y-45617924D01*
X114004312Y-45617925D01*
X114004310Y-45617927D01*
X113956610Y-45683579D01*
X113893240Y-45770800D01*
X113807454Y-45939163D01*
X113749059Y-46118881D01*
X113719500Y-46305513D01*
X108657709Y-46305513D01*
X108657709Y-41935009D01*
X108677394Y-41867970D01*
X108730198Y-41822215D01*
X108781709Y-41811009D01*
X111823099Y-41811009D01*
X111823101Y-41811009D01*
X111950395Y-41776901D01*
X112064523Y-41711009D01*
X112157709Y-41617823D01*
X112223601Y-41503695D01*
X112257709Y-41376401D01*
X112257709Y-38335009D01*
X112277394Y-38267970D01*
X112330198Y-38222215D01*
X112381709Y-38211009D01*
X115423099Y-38211009D01*
X115423101Y-38211009D01*
X115550395Y-38176901D01*
X115664523Y-38111009D01*
X115757709Y-38017823D01*
X115823601Y-37903695D01*
X115857709Y-37776401D01*
X115857709Y-31135009D01*
X115877394Y-31067970D01*
X115930198Y-31022215D01*
X115981709Y-31011009D01*
X121332709Y-31011009D01*
X121399748Y-31030694D01*
G37*
%TD.AperFunction*%
%TD*%
M02*
